<?xml version="1.0" encoding="UTF-8" standalone="no"?>
<svg
   xmlns:dc="http://purl.org/dc/elements/1.1/"
   xmlns:cc="http://creativecommons.org/ns#"
   xmlns:rdf="http://www.w3.org/1999/02/22-rdf-syntax-ns#"
   xmlns:svg="http://www.w3.org/2000/svg"
   xmlns="http://www.w3.org/2000/svg"
   viewBox="0 0 557.65002 501.90625"
   height="501.90625"
   width="557.65002"
   xml:space="preserve"
   version="1.1"
   id="svg4155"><metadata
     id="metadata4161"><rdf:RDF><cc:Work
         rdf:about=""><dc:format>image/svg+xml</dc:format><dc:type
           rdf:resource="http://purl.org/dc/dcmitype/StillImage" /><dc:title></dc:title></cc:Work></rdf:RDF></metadata><defs
     id="defs4159"><clipPath
       id="clipPath4169"
       clipPathUnits="userSpaceOnUse"><path
         id="path4171"
         d="m 0,401.525 446.12,0 L 446.12,0 0,0 0,401.525 Z" /></clipPath></defs><g
     transform="matrix(1.25,0,0,-1.25,0,501.90625)"
     id="g4163"><g
       id="g4165"><g
         clip-path="url(#clipPath4169)"
         id="g4167"><g
           transform="translate(371.0728,364.6719)"
           id="g4173"><path
             id="path4175"
             style="fill:#ffffff;fill-opacity:1;fill-rule:nonzero;stroke:none"
             d="m 0,0 c 0,-19.865 -16.104,-35.97 -35.969,-35.97 -19.866,0 -35.97,16.105 -35.97,35.97 0,19.866 16.104,35.97 35.97,35.97 C -16.104,35.97 0,19.866 0,0" /></g><g
           style="stroke-width:0.144;stroke-miterlimit:4;stroke-dasharray:none;stroke:#ff0000"
           transform="translate(371.0728,364.6719)"
           id="g4177"><path
             id="path4179"
             style="fill:none;stroke:#ff0000;stroke-width:0.144;stroke-linecap:butt;stroke-linejoin:miter;stroke-miterlimit:4;stroke-dasharray:none;stroke-opacity:1"
             d="m 0,0 c 0,-19.865 -16.104,-35.97 -35.969,-35.97 -19.866,0 -35.97,16.105 -35.97,35.97 0,19.866 16.104,35.97 35.97,35.97 C -16.104,35.97 0,19.866 0,0 Z" /></g><g
           transform="translate(335.0381,392.0068)"
           id="g4181"><path
             id="path4183"
             style="fill:#231f20;fill-opacity:1;fill-rule:evenodd;stroke:none"
             d="m 0,0 c -1.255,-0.014 -2.06,-0.821 -2.026,-2.033 0.03,-1.054 0.948,-1.858 2.124,-1.86 1.2,-0.002 1.886,0.733 1.875,2.008 C 1.961,-0.631 1.287,0.014 0,0 m 0.187,-34.03 c 1.873,0.154 3.84,0.271 5.794,0.499 0.745,0.087 1.896,0.037 1.832,1.08 -0.023,0.388 -1.253,0.984 -1.944,1.001 -3.902,0.097 -7.807,0.08 -11.709,0.018 -0.783,-0.012 -1.961,-0.026 -1.969,-1.139 -0.008,-1.027 1.129,-1.066 1.882,-1.133 1.997,-0.177 4.007,-0.223 6.114,-0.326 m -0.22,5.056 c 0.002,0.094 0.003,0.189 0.005,0.284 2.011,0 4.023,-0.039 6.032,0.019 0.767,0.023 1.905,-0.051 1.877,1.049 -0.024,1 -1.124,1.085 -1.909,1.103 -3.559,0.084 -7.119,0.106 -10.679,0.127 -0.616,0.003 -1.279,0.016 -1.836,-0.195 -0.504,-0.192 -0.894,-0.685 -1.334,-1.044 0.452,-0.33 0.88,-0.902 1.36,-0.949 2.153,-0.212 4.322,-0.276 6.484,-0.394 m -1.324,10.192 0,-3.488 2.858,0 0,3.534 2.643,0 0,3.036 -2.726,0 0,3.302 -2.814,0 c 0,-0.618 0.003,-1.156 0,-1.693 -0.012,-1.83 0.165,-1.633 -1.591,-1.651 -0.37,-0.004 -0.739,-0.043 -1.104,-0.065 l 0,-2.975 2.734,0 z M 1.475,3.26 C 1.5,3.231 1.522,3.182 1.551,3.176 5.531,2.458 6.604,-1.961 4.441,-5.165 4.272,-5.416 4.115,-5.675 4.08,-5.729 c 2.26,-1.57 4.588,-2.969 6.658,-4.679 3.003,-2.479 5.075,-5.59 4.895,-9.697 -0.141,-3.234 -1.706,-5.933 -3.699,-8.354 -0.81,-0.983 -1.05,-1.84 -0.627,-3.03 0.412,-1.162 0.647,-2.388 0.955,-3.587 0.393,-1.524 0.024,-2.489 -1.427,-3.111 -1.109,-0.475 -2.318,-0.718 -3.567,-1.35 2.142,-0.392 4.27,-0.919 6.428,-1.133 1.604,-0.16 3.248,0.078 4.874,0.151 3.085,0.139 6.035,-1.864 6.987,-4.773 0.061,-0.189 0.053,-0.477 -0.052,-0.633 -1.055,-1.575 -2.084,-3.172 -3.236,-4.674 -0.448,-0.583 -1.19,-0.941 -1.86,-1.449 -1.272,1.712 -3.085,1.803 -4.84,2.034 -2.762,0.363 -5.539,0.634 -8.283,1.103 -2.659,0.456 -5.15,1.411 -7.291,3.29 -3.087,-3.12 -7.13,-3.458 -11.138,-3.933 -2.228,-0.264 -4.46,-0.54 -6.661,-0.962 -0.895,-0.172 -1.71,-0.747 -2.942,-1.312 -0.645,0.652 -1.628,1.505 -2.434,2.502 -0.823,1.02 -1.501,2.163 -2.174,3.292 -0.152,0.256 -0.146,0.74 -0.007,1.014 1.796,3.542 3.984,4.757 7.986,4.411 3.165,-0.273 6.27,-0.092 9.281,1.002 0.277,0.101 0.544,0.231 0.855,0.363 -1.154,0.311 -2.257,0.511 -3.284,0.908 -1.714,0.664 -2.168,1.74 -1.637,3.496 0.435,1.443 1.346,2.945 1.173,4.311 -0.169,1.339 -1.441,2.537 -2.228,3.799 -2,3.207 -3.204,6.587 -1.816,10.349 0.475,1.285 1.156,2.573 2.036,3.612 2.474,2.925 5.425,5.289 8.806,6.733 -0.441,1.358 -1.125,2.697 -1.276,4.093 -0.286,2.647 0.886,4.134 3.427,4.911 0.247,0.075 0.481,0.194 0.721,0.292 l 2.792,0 z" /></g><g
           transform="translate(148.1997,364.687)"
           id="g4185"><path
             id="path4187"
             style="fill:#ffffff;fill-opacity:1;fill-rule:nonzero;stroke:none"
             d="m 0,0 c 0,-19.865 -16.104,-35.97 -35.97,-35.97 -19.865,0 -35.969,16.105 -35.969,35.97 0,19.866 16.104,35.97 35.969,35.97 C -16.104,35.97 0,19.866 0,0" /></g><g
           style="stroke-width:0.144;stroke-miterlimit:4;stroke-dasharray:none;stroke:#ff0000"
           transform="translate(148.1997,364.687)"
           id="g4189"><path
             id="path4191"
             style="fill:none;stroke:#ff0000;stroke-width:0.144;stroke-linecap:butt;stroke-linejoin:miter;stroke-miterlimit:4;stroke-dasharray:none;stroke-opacity:1"
             d="m 0,0 c 0,-19.865 -16.104,-35.97 -35.97,-35.97 -19.865,0 -35.969,16.105 -35.969,35.97 0,19.866 16.104,35.97 35.969,35.97 C -16.104,35.97 0,19.866 0,0 Z" /></g><g
           transform="translate(112.2329,387.7363)"
           id="g4193"><path
             id="path4195"
             style="fill:#231f20;fill-opacity:1;fill-rule:evenodd;stroke:none"
             d="m 0,0 c -1.071,-0.025 -1.895,-0.916 -1.886,-2.04 0.008,-1.107 0.941,-1.918 2.15,-1.871 1.108,0.045 1.749,0.788 1.712,1.986 C 1.94,-0.786 1.106,0.026 0,0 m 10.73,-4.461 c -0.003,-1.24 0.683,-1.933 1.901,-1.919 1.216,0.014 1.896,0.703 1.912,1.936 0.017,1.278 -0.607,1.948 -1.838,1.973 -1.233,0.026 -1.971,-0.717 -1.975,-1.99 M -22.779,-7.39 c -1.169,0.002 -1.99,-0.858 -1.972,-2.068 0.017,-1.108 0.842,-1.851 2.05,-1.842 1.144,0.008 1.776,0.688 1.785,1.921 0.009,1.259 -0.673,1.987 -1.863,1.989 m 45.602,-3.913 c 1.256,-0.002 1.945,0.652 1.965,1.867 0.019,1.17 -0.81,2.014 -2.008,2.043 -1.142,0.028 -1.867,-0.748 -1.857,-1.988 0.009,-1.258 0.662,-1.919 1.9,-1.922 m -33.467,6.933 c -0.011,1.306 -0.611,1.905 -1.902,1.9 -1.317,-0.006 -2.026,-0.705 -2.004,-1.975 0.022,-1.242 0.799,-1.966 2.079,-1.935 1.223,0.028 1.839,0.706 1.827,2.01 M 9.959,-41.48 c 0.825,0 1.4,-0.122 1.886,0.036 0.446,0.143 0.993,0.524 1.121,0.92 0.102,0.319 -0.248,0.999 -0.586,1.201 -0.675,0.402 -1.46,0.693 -2.236,0.842 -4.902,0.944 -9.86,0.837 -14.805,0.562 -2.131,-0.12 -4.256,-0.519 -6.354,-0.941 -0.826,-0.167 -2.066,-0.386 -1.892,-1.608 0.187,-1.314 1.412,-1.093 2.337,-1.007 6.94,0.645 13.878,0.647 20.529,-0.005 m -7.302,10.304 c 0.004,-0.062 0.007,-0.123 0.01,-0.185 0.459,-0.034 0.917,-0.082 1.377,-0.101 2.91,-0.123 5.819,-0.284 8.731,-0.317 0.473,-0.005 0.951,0.563 1.427,0.866 -0.326,0.464 -0.552,1.118 -0.998,1.348 -0.765,0.396 -1.651,0.635 -2.513,0.752 -6.681,0.911 -13.381,0.842 -20.072,0.165 -1.346,-0.136 -2.676,-0.616 -3.956,-1.092 -0.362,-0.135 -0.73,-0.83 -0.703,-1.242 0.019,-0.291 0.671,-0.704 1.089,-0.773 0.784,-0.129 1.605,-0.087 2.407,-0.05 4.4,0.199 8.8,0.417 13.201,0.629 m -16.389,10.405 c 0.327,3.484 0.686,6.922 -0.032,10.324 -0.222,1.053 -0.826,2.246 -1.637,2.909 -1.525,1.248 -1.763,2.737 -1.444,4.428 0.327,1.736 1.6,2.667 3.214,3.102 2.938,0.791 6.027,-1.551 5.416,-4.449 -0.971,-4.602 0.503,-8.627 2.143,-12.696 0.496,-1.23 1.072,-2.427 1.724,-3.615 0.971,4.83 2.36,9.59 1.277,14.551 -0.219,1.005 -0.6,1.977 -0.948,2.949 -0.589,1.65 -0.143,3.433 1.159,4.479 1.555,1.25 3.753,1.424 5.266,0.416 1.475,-0.982 2.331,-3 1.632,-4.629 -2.316,-5.402 -1.137,-10.78 -0.103,-16.177 0.086,-0.451 0.2,-0.898 0.309,-1.344 0.017,-0.071 0.071,-0.132 0.223,-0.4 2.011,5.152 4.793,9.898 3.798,15.679 -0.615,3.573 2.115,6.063 5.511,5.25 1.77,-0.423 2.722,-1.726 3.096,-3.378 0.346,-1.525 0.093,-2.99 -1.296,-4.024 -1.494,-1.114 -1.853,-2.773 -2.042,-4.467 -0.133,-1.178 -0.155,-2.376 -0.125,-3.563 0.045,-1.761 0.179,-3.521 0.278,-5.332 2.823,1.559 5.357,6.548 4.957,9.566 -0.106,0.795 -0.248,1.61 -0.175,2.399 0.171,1.863 1.576,3.326 3.421,3.725 1.838,0.397 3.565,-0.263 4.549,-1.736 1.137,-1.704 1.154,-3.728 -0.028,-5.264 -0.391,-0.508 -0.863,-1.047 -1.421,-1.314 -1.066,-0.509 -1.325,-1.315 -1.53,-2.399 -0.803,-4.252 -1.721,-8.483 -2.648,-12.71 -0.107,-0.489 -0.509,-0.934 -0.833,-1.353 -1.357,-1.762 -2.753,-3.495 -4.103,-5.263 -0.938,-1.23 -1.046,-2.498 -0.38,-3.972 0.67,-1.485 1.177,-3.073 1.534,-4.666 0.401,-1.792 0.016,-2.516 -1.772,-3.022 -2.128,-0.603 -4.324,-1.176 -6.515,-1.294 -4.821,-0.26 -9.667,-0.42 -14.488,-0.238 -2.994,0.112 -5.992,0.799 -8.934,1.468 -2.342,0.532 -2.684,1.196 -2.191,3.554 0.287,1.375 0.767,2.737 1.362,4.012 0.672,1.441 0.66,2.727 -0.281,3.994 -1.029,1.384 -2.02,2.804 -3.13,4.121 -1.133,1.344 -2.004,2.752 -2.331,4.524 -0.732,3.952 -1.544,7.889 -2.381,11.82 -0.083,0.391 -0.5,0.807 -0.872,1.022 -2.249,1.299 -3.242,3.405 -2.613,5.694 0.599,2.178 2.818,3.459 5.255,3.034 1.941,-0.338 3.541,-2.413 3.421,-4.453 -0.03,-0.498 -0.064,-1.003 -0.174,-1.486 -0.381,-1.663 -0.02,-3.187 0.751,-4.664 0.975,-1.869 2.86,-4.251 4.131,-5.112" /></g><g
           style="stroke-width:0.144;stroke-miterlimit:4;stroke-dasharray:none;stroke:#ff0000"
           transform="translate(73.3994,335.2168)"
           id="g4197"><path
             id="path4199"
             style="fill:#ffffff;fill-opacity:1;fill-rule:nonzero;stroke:#ff0000;stroke-width:0.144;stroke-linecap:butt;stroke-linejoin:miter;stroke-miterlimit:4;stroke-dasharray:none;stroke-opacity:1"
             d="m 0,0 c 19.865,0 35.97,-16.104 35.97,-35.97 0,-19.865 -16.105,-35.97 -35.97,-35.97 -19.866,0 -35.97,16.105 -35.97,35.97 C -35.97,-16.104 -19.866,0 0,0" /></g><g
           transform="translate(52.8281,296.373)"
           id="g4201"><path
             id="path4203"
             style="fill:#231f20;fill-opacity:1;fill-rule:evenodd;stroke:none"
             d="m 0,0 c -1.655,-0.097 -2.725,-1.116 -2.67,-2.453 0.027,-0.641 0.266,-0.922 0.966,-0.77 C -0.252,-2.906 0.446,-1.662 0,0 M 10.119,16.561 C 7.864,16.375 5.62,14.625 5.319,12.7 5.097,11.271 5.76,10.618 7.121,10.94 c 1.752,0.415 3.026,1.555 4.08,2.914 0.368,0.474 0.69,1.315 0.508,1.787 -0.173,0.444 -1.032,0.624 -1.59,0.92 M 40.014,-8.74 c 0.137,0.015 0.273,0.032 0.41,0.049 -0.559,3.403 -0.886,6.865 -1.726,10.198 -1.688,6.705 -5.447,12.131 -10.972,16.306 -1.704,1.288 -3.673,1.908 -5.787,1.91 -0.512,0.002 -1.355,-0.427 -1.47,-0.824 -0.228,-0.788 0.609,-0.878 1.207,-1.121 1.423,-0.58 2.93,-1.078 4.18,-1.936 3.75,-2.576 6.555,-5.993 8.361,-10.197 2.192,-5.102 2.848,-10.477 2.887,-15.971 0.005,-0.949 0.084,-1.907 0.237,-2.844 0.118,-0.723 0.431,-1.418 1.351,-1.405 0.912,0.012 1.265,0.684 1.301,1.43 0.072,1.465 0.021,2.936 0.021,4.405 M 4.999,28.693 c 3.428,0.307 6.254,-0.999 9.044,-2.59 0.722,0.938 1.395,1.918 2.179,2.806 0.964,1.096 1.324,1.076 2.518,0.296 1.584,-1.031 2.54,-2.483 3.046,-4.273 0.151,-0.532 0.357,-1.048 0.548,-1.605 4.627,0.469 8.183,-1.614 11.267,-4.711 5.411,-5.436 8.385,-12.095 9.678,-19.58 0.886,-5.133 0.944,-10.3 0.684,-15.481 -0.028,-0.548 -0.133,-1.09 -0.211,-1.69 l -34.476,0 c 0.246,1.316 0.409,2.593 0.729,3.83 0.753,2.915 2.449,5.319 4.267,7.658 1.826,2.352 3.798,4.638 4.284,7.739 0.017,0.112 0.011,0.226 0.025,0.526 C 15.895,0.598 13.579,-0.816 11.848,-2.986 10.563,-4.597 9.509,-6.395 8.369,-8.12 7.878,-8.864 7.434,-9.64 6.342,-9.468 5.253,-9.298 4.833,-8.546 4.664,-7.566 4.644,-7.455 4.569,-7.354 4.489,-7.176 3.577,-8.154 2.547,-7.99 1.412,-7.689 c -2.435,0.646 -4.529,1.684 -5.782,4.032 -0.427,0.8 -0.574,1.539 -0.242,2.376 1.11,2.807 2.141,5.648 3.346,8.414 1.749,4.008 3.578,7.984 5.459,11.931 1.221,2.56 1.342,5.196 0.957,7.924 -0.073,0.51 -0.092,1.028 -0.151,1.705" /></g><g
           style="stroke-width:0.144;stroke-miterlimit:4;stroke-dasharray:none;stroke:#ff0000"
           transform="translate(186.0811,400.6421)"
           id="g4205"><path
             id="path4207"
             style="fill:#ffffff;fill-opacity:1;fill-rule:nonzero;stroke:#ff0000;stroke-width:0.144;stroke-linecap:butt;stroke-linejoin:miter;stroke-miterlimit:4;stroke-dasharray:none;stroke-opacity:1"
             d="m 0,0 c 19.865,0 35.969,-16.104 35.969,-35.97 0,-19.865 -16.104,-35.969 -35.969,-35.969 -19.866,0 -35.97,16.104 -35.97,35.969 C -35.97,-16.104 -19.866,0 0,0" /></g><path
           id="path4209"
           style="fill:#231f20;fill-opacity:1;fill-rule:evenodd;stroke:none"
           d="m 195.093,359.045 -17.657,0 0,-2.507 17.657,0 0,2.507 z m -17.678,11.634 17.678,0 0,2.561 -17.678,0 0,-2.561 z m 0.297,14.28 2.453,0 c 0.433,0.996 0.716,1.917 1.222,2.692 0.228,0.348 0.896,0.555 1.372,0.567 2.223,0.058 4.449,0.027 6.674,0.025 1.675,-10e-4 2.492,-0.811 2.521,-2.488 0.004,-0.228 0.027,-0.456 0.047,-0.766 l 2.907,0 c 0.037,1.028 -0.163,2.148 0.925,2.764 0.377,0.214 0.801,0.438 1.216,0.469 0.955,0.069 1.927,-0.064 2.874,0.042 1.422,0.159 2.485,-0.27 3.41,-1.38 0.521,-0.623 0.874,-1.158 0.835,-2.009 -0.072,-1.608 -0.062,-3.224 -0.002,-4.833 0.028,-0.765 -0.237,-1.282 -0.774,-1.793 -1.613,-1.533 -3.207,-3.086 -4.745,-4.693 -0.351,-0.367 -0.623,-0.978 -0.627,-1.481 -0.048,-4.641 -0.045,-9.284 -0.002,-13.926 0.003,-0.468 0.257,-1.045 0.587,-1.382 2.201,-2.247 4.477,-4.422 6.669,-6.676 0.375,-0.385 0.61,-1.029 0.663,-1.577 0.103,-1.065 0.031,-2.146 0.03,-3.22 0,-1.996 -0.903,-2.898 -2.901,-2.898 -11.279,-0.001 -22.559,-0.001 -33.838,0 -1.737,0 -2.456,0.936 -2.683,2.651 -0.427,3.224 0.593,5.643 3.187,7.613 1.515,1.15 2.784,2.635 4.095,4.033 0.348,0.37 0.628,0.974 0.632,1.474 0.048,4.641 0.048,9.284 0.001,13.926 -0.004,0.502 -0.263,1.115 -0.611,1.482 -1.532,1.611 -3.178,3.115 -4.694,4.742 -0.413,0.442 -0.674,1.16 -0.728,1.775 -0.111,1.257 0.12,2.553 -0.07,3.791 -0.279,1.827 0.599,2.982 1.887,3.981 0.273,0.213 0.673,0.347 1.021,0.363 1.072,0.046 2.148,0.017 3.222,0.017 2.355,0 2.943,-0.543 3.112,-2.865 0.007,-0.11 0.057,-0.218 0.113,-0.42" /><g
           transform="translate(146.292,102.252)"
           id="g4211"><path
             id="path4213"
             style="fill:#ffffff;fill-opacity:1;fill-rule:nonzero;stroke:none"
             d="m 0,0 c 0,-19.865 -16.104,-35.969 -35.97,-35.969 -19.865,0 -35.969,16.104 -35.969,35.969 0,19.866 16.104,35.97 35.969,35.97 C -16.104,35.97 0,19.866 0,0" /></g><g
           style="stroke-width:0.144;stroke-miterlimit:4;stroke-dasharray:none;stroke:#ff0000"
           transform="translate(146.292,102.252)"
           id="g4215"><path
             id="path4217"
             style="fill:none;stroke:#ff0000;stroke-width:0.144;stroke-linecap:butt;stroke-linejoin:miter;stroke-miterlimit:4;stroke-dasharray:none;stroke-opacity:1"
             d="m 0,0 c 0,-19.865 -16.104,-35.969 -35.97,-35.969 -19.865,0 -35.969,16.104 -35.969,35.969 0,19.866 16.104,35.97 35.969,35.97 C -16.104,35.97 0,19.866 0,0 Z" /></g><g
           transform="translate(132.2646,117.8442)"
           id="g4219"><path
             id="path4221"
             style="fill:#231f20;fill-opacity:1;fill-rule:evenodd;stroke:none"
             d="m 0,0 c -1.172,0.003 -1.922,-0.746 -1.914,-1.91 0.01,-1.163 0.773,-1.951 1.906,-1.967 1.154,-0.015 1.841,0.71 1.861,1.962 C 1.872,-0.643 1.253,-0.004 0,0 m -20.761,5.448 c 0.009,1.266 -0.63,1.915 -1.88,1.907 -1.274,-0.007 -1.901,-0.629 -1.9,-1.889 0,-1.32 0.668,-2.008 1.939,-1.995 1.2,0.012 1.832,0.693 1.841,1.977 m -26.502,-7.302 c -0.009,-1.286 0.685,-2.018 1.92,-2.025 1.195,-0.007 1.859,0.676 1.873,1.927 0.012,1.182 -0.701,1.928 -1.871,1.951 -1.247,0.026 -1.914,-0.618 -1.922,-1.853 m 38.984,4.962 c -0.014,1.234 -0.67,1.876 -1.925,1.886 -1.206,0.008 -1.99,-0.802 -1.953,-2.016 0.032,-1.055 0.85,-1.85 1.917,-1.864 1.255,-0.017 1.974,0.714 1.961,1.994 m -26.833,1.887 c -1.253,0.001 -1.922,-0.644 -1.946,-1.876 -0.025,-1.267 0.706,-2.015 1.961,-2.005 1.205,0.01 1.877,0.712 1.874,1.962 -0.003,1.261 -0.649,1.918 -1.889,1.919 m 9.754,-28.271 c 0.003,0.053 0.004,0.104 0.006,0.155 3.456,-0.127 6.911,-0.243 10.365,-0.385 1.633,-0.067 3.263,-0.215 4.896,-0.255 0.36,-0.01 0.728,0.271 1.092,0.419 -0.186,0.429 -0.254,1.036 -0.58,1.25 -0.683,0.449 -1.474,0.801 -2.27,0.995 -4.844,1.177 -9.778,1.366 -14.728,1.097 -2.921,-0.159 -5.834,-0.511 -8.54,-1.77 -0.639,-0.297 -1.334,-0.74 -1.036,-1.514 0.118,-0.309 0.956,-0.496 1.456,-0.477 3.114,0.122 6.227,0.317 9.339,0.485 m 3.47,-10.019 c -3.936,-0.235 -7.126,-0.399 -10.31,-0.635 -0.743,-0.055 -1.508,-0.264 -2.186,-0.572 -0.383,-0.174 -0.837,-0.692 -0.837,-1.055 0,-0.34 0.499,-0.836 0.885,-0.983 0.771,-0.294 1.609,-0.523 2.43,-0.558 4.251,-0.188 8.505,-0.402 12.758,-0.412 2.306,-0.004 4.619,0.332 6.916,0.615 0.895,0.109 2.235,0.162 2.232,1.303 -0.003,1.172 -1.321,1.355 -2.286,1.451 -3.437,0.346 -6.882,0.611 -9.602,0.846 m 11.387,6.611 c -8.034,0.957 -16.262,1.01 -24.209,-0.008 0.155,-1.703 0.293,-3.211 0.418,-4.576 3.801,0.18 7.744,0.512 11.688,0.51 3.939,0 7.879,-0.33 11.659,-0.512 0.134,1.391 0.28,2.902 0.444,4.586 m 7.839,16.451 c -2.405,-3.048 -4.699,-5.848 -8.242,-7.824 -0.46,4.412 -0.892,8.546 -1.31,12.564 -1.494,-3.951 -3.058,-8.101 -6.427,-11.162 -2.542,3.309 -2.858,7.351 -3.958,11.412 -0.906,-4.15 -1.458,-8.166 -4.023,-11.428 -3.373,3.047 -4.893,7.106 -6.375,11.054 -0.468,-4.067 -0.939,-8.153 -1.431,-12.425 -3.422,2.028 -5.775,4.713 -8.097,7.467 0.188,-1.443 0.443,-2.824 0.777,-4.183 0.4,-1.623 0.823,-3.242 1.324,-4.834 0.254,-0.806 0.686,-1.214 1.699,-0.658 1.288,0.708 2.687,1.296 4.109,1.662 9.862,2.531 19.56,2.39 29.019,-1.938 1.13,1.059 2.171,4.606 2.935,10.293 m -33.674,-3.18 c 0.312,3.865 0.818,7.399 -0.107,10.879 -0.263,0.988 -1.056,1.913 -1.802,2.675 -1.344,1.371 -1.741,3.504 -0.773,5.236 0.966,1.729 3.228,2.61 5.247,2.045 1.679,-0.469 3.375,-2.58 2.995,-4.255 -1.053,-4.644 0.468,-8.794 2.139,-12.946 0.461,-1.143 0.984,-2.263 1.614,-3.366 1.237,5.735 2.785,11.418 0.388,17.224 -0.948,2.296 0.289,4.537 2.79,5.349 2.281,0.741 4.627,-0.461 5.208,-2.766 0.185,-0.736 0.307,-1.653 0.033,-2.311 -1.71,-4.116 -1.653,-8.309 -0.801,-12.568 0.333,-1.666 0.666,-3.331 1.066,-5.334 1.866,4.03 3.563,7.74 4.06,11.824 0.18,1.481 -0.102,3.027 -0.237,4.536 -0.194,2.158 0.798,3.779 2.848,4.533 1.823,0.67 3.893,0.022 4.96,-1.553 1.207,-1.784 1.22,-3.974 -0.183,-5.372 -1.684,-1.677 -2.38,-3.736 -2.455,-5.977 -0.082,-2.494 0.111,-4.998 0.34,-7.528 2.258,2.154 4.34,4.375 4.942,7.494 0.179,0.935 -0.06,1.965 -0.187,2.941 -0.307,2.35 0.636,4.038 2.794,4.893 C 0.36,2.96 2.45,2.291 3.579,0.626 4.777,-1.139 4.604,-3.494 3.109,-5.054 2.667,-5.515 2.153,-5.954 1.587,-6.236 0.944,-6.555 0.802,-7.022 0.674,-7.661 c -0.894,-4.472 -1.787,-8.947 -2.811,-13.391 -0.199,-0.866 -0.903,-1.656 -1.488,-2.388 -0.974,-1.218 -2.065,-2.342 -3.062,-3.541 -1.205,-1.451 -1.455,-2.988 -0.542,-4.75 0.868,-1.674 1.745,-3.348 1.537,-5.4 -0.111,-1.094 -0.527,-1.744 -1.476,-2.02 -1.383,-0.4 -2.783,-0.832 -4.206,-0.992 -8.399,-0.94 -16.803,-1.059 -25.137,0.557 -3.27,0.634 -3.499,1.169 -2.877,4.625 0.211,1.171 0.741,2.32 1.295,3.39 0.824,1.592 0.646,3.022 -0.432,4.354 -1.149,1.422 -2.425,2.741 -3.533,4.191 -0.552,0.727 -1.039,1.604 -1.234,2.484 -0.983,4.454 -1.846,8.932 -2.806,13.391 -0.075,0.352 -0.517,0.69 -0.866,0.908 -1.619,1.012 -2.69,2.337 -2.706,4.338 -0.021,2.584 1.993,4.496 4.636,4.394 2.429,-0.096 4.532,-2.294 3.985,-4.712 -1.086,-4.811 1.637,-7.836 4.713,-11.19" /></g><g
           transform="translate(72.439,102.8193)"
           id="g4223"><path
             id="path4225"
             style="fill:#ffffff;fill-opacity:1;fill-rule:nonzero;stroke:none"
             d="m 0,0 c 0,-19.865 -16.104,-35.97 -35.969,-35.97 -19.866,0 -35.97,16.105 -35.97,35.97 0,19.866 16.104,35.97 35.97,35.97 C -16.104,35.97 0,19.866 0,0" /></g><g
           style="stroke-width:0.144;stroke-miterlimit:4;stroke-dasharray:none;stroke:#ff0000"
           transform="translate(72.439,102.8193)"
           id="g4227"><path
             id="path4229"
             style="fill:none;stroke:#ff0000;stroke-width:0.144;stroke-linecap:butt;stroke-linejoin:miter;stroke-miterlimit:4;stroke-dasharray:none;stroke-opacity:1"
             d="m 0,0 c 0,-19.865 -16.104,-35.97 -35.969,-35.97 -19.866,0 -35.97,16.105 -35.97,35.97 0,19.866 16.104,35.97 35.97,35.97 C -16.104,35.97 0,19.866 0,0 Z" /></g><g
           transform="translate(36.5332,105.0557)"
           id="g4231"><path
             id="path4233"
             style="fill:#231f20;fill-opacity:1;fill-rule:evenodd;stroke:none"
             d="m 0,0 c 0.662,1.043 1.211,1.962 1.814,2.847 1.603,2.353 1.966,4.939 1.5,7.688 -0.329,1.937 -1.436,2.988 -3.17,3.029 -1.956,0.048 -3.08,-0.903 -3.55,-2.9 C -4.392,6.472 -2.453,3.229 0,0 m 0.059,-25.828 c 0.006,0.052 0.014,0.102 0.021,0.155 2.103,0.095 4.213,0.12 6.309,0.311 1.513,0.137 3.01,0.474 4.503,0.776 0.282,0.057 0.731,0.38 0.72,0.557 -0.019,0.308 -0.267,0.736 -0.539,0.872 -0.655,0.324 -1.366,0.661 -2.079,0.724 -2.956,0.268 -5.926,0.643 -8.883,0.585 -3.413,-0.066 -6.823,-0.493 -10.218,-0.896 -0.6,-0.071 -1.121,-0.794 -1.679,-1.216 0.582,-0.312 1.139,-0.836 1.748,-0.905 3.359,-0.382 6.73,-0.654 10.097,-0.963 m 15.194,12.615 c -0.354,0.057 -0.709,0.13 -1.067,0.17 -4.667,0.521 -9.335,1.038 -14.003,1.55 -0.201,0.021 -0.409,0.004 -0.611,-0.023 -3.351,-0.428 -6.7,-0.888 -10.057,-1.282 -1.659,-0.195 -3.332,-0.268 -4.952,-0.393 0.378,-2.435 0.73,-4.696 1.081,-6.956 9.551,2.339 19.054,2.357 28.582,0.008 0.342,2.307 0.679,4.573 1.027,6.926 m -27.589,3.454 c 0.007,-0.056 0.016,-0.113 0.023,-0.171 2.898,0.382 5.811,0.681 8.689,1.173 2.128,0.364 2.137,0.514 1.8,2.604 -0.092,0.569 -0.173,1.144 -0.328,1.697 -1.646,5.854 -5.25,9.986 -11.083,11.804 -2.899,0.902 -5.769,0.13 -7.715,-2.323 -1.925,-2.426 -2.345,-5.235 -0.759,-8.089 0.639,-1.151 1.332,-2.28 2.088,-3.356 2.399,-3.414 2.414,-3.402 6.542,-3.339 0.247,0.004 0.496,0 0.743,0 M 11.9,-9.928 c 0.01,0.052 0.019,0.104 0.029,0.156 1.403,0 2.805,-0.018 4.208,0.013 0.342,0.007 0.839,0.06 0.996,0.282 1.638,2.316 3.53,4.522 4.752,7.048 C 23.921,1.784 21.203,6.632 16.601,7.51 14.633,7.885 12.734,7.551 10.968,6.6 5.819,3.828 2.589,-0.354 1.647,-6.193 1.349,-8.039 1.413,-8.346 3.23,-8.693 6.095,-9.239 9.008,-9.529 11.9,-9.928 M 6.571,7.507 c 0.824,0.559 1.412,0.993 2.033,1.375 4.208,2.585 8.432,2.634 12.589,-0.07 3.909,-2.542 5.409,-7.184 3.672,-11.518 -0.608,-1.517 -1.377,-3.046 -2.395,-4.309 -3.658,-4.54 -5.326,-9.729 -5.418,-15.479 -0.031,-1.938 -0.945,-3.34 -2.647,-3.955 -2.154,-0.777 -4.397,-1.488 -6.657,-1.75 -6.383,-0.738 -12.782,-0.778 -19.112,0.584 -0.959,0.207 -1.893,0.579 -2.801,0.962 -2.024,0.854 -3.02,2.356 -3.102,4.614 -0.194,5.358 -1.52,10.351 -5.035,14.594 -0.785,0.948 -1.458,2.01 -2.052,3.091 -3.552,6.458 0.218,13.871 7.531,14.94 3.212,0.469 6.036,-0.438 8.683,-2.151 0.405,-0.263 0.807,-0.53 1.32,-0.867 0.051,0.714 0.153,1.286 0.121,1.851 -0.172,3.038 1.539,5.023 3.738,6.726 1.274,0.984 1.239,2.395 -0.128,3.199 -0.142,0.085 -0.276,0.196 -0.43,0.245 -2.085,0.67 -2.424,2.182 -1.931,4.162 0.263,0.027 0.583,0.082 0.903,0.089 2.119,0.045 2.186,0.021 2.807,2.107 0.287,0.964 0.777,1.144 1.68,1.154 C 0.868,27.11 1.333,26.855 1.615,25.928 2.238,23.873 2.291,23.892 4.44,23.841 4.72,23.834 5,23.795 5.433,23.758 5.433,22.898 5.486,22.08 5.405,21.274 5.375,20.977 5.084,20.634 4.818,20.444 4.249,20.038 3.617,19.721 3.012,19.365 1.536,18.498 1.465,17.072 2.902,16.103 5.378,14.43 6.82,12.242 6.576,9.144 6.54,8.692 6.571,8.237 6.571,7.507" /></g><g
           style="stroke-width:0.144;stroke-miterlimit:4;stroke-dasharray:none;stroke:#ff0000"
           transform="translate(184.813,138.2227)"
           id="g4235"><path
             id="path4237"
             style="fill:#ffffff;fill-opacity:1;fill-rule:nonzero;stroke:#ff0000;stroke-width:0.144;stroke-linecap:butt;stroke-linejoin:miter;stroke-miterlimit:4;stroke-dasharray:none;stroke-opacity:1"
             d="m 0,0 c 19.865,0 35.969,-16.104 35.969,-35.97 0,-19.864 -16.104,-35.969 -35.969,-35.969 -19.866,0 -35.97,16.105 -35.97,35.969 C -35.97,-16.104 -19.866,0 0,0" /></g><path
           id="path4239"
           style="fill:#231f20;fill-opacity:1;fill-rule:evenodd;stroke:none"
           d="m 203.245,84.023 -36.445,0 0,-3.162 36.445,0 0,3.162 z m -33.103,3.127 29.839,0 c -1.525,1.635 -3.097,3.362 -4.729,5.03 -0.236,0.24 -0.757,0.283 -1.146,0.285 -6.064,0.017 -12.129,0.017 -18.193,0 -0.388,-0.002 -0.911,-0.041 -1.142,-0.283 -1.618,-1.69 -3.176,-3.438 -4.629,-5.032 m 3.194,36.574 c -0.985,0 -2.216,0.011 -3.448,-0.002 -1.215,-0.014 -1.989,-0.771 -2.009,-1.974 -0.018,-0.992 -0.087,-1.992 0.028,-2.969 0.064,-0.543 0.329,-1.189 0.724,-1.542 1.352,-1.208 2.768,-2.356 4.234,-3.424 0.516,-0.377 1.244,-0.646 1.878,-0.649 6.068,-0.049 12.141,0.077 18.206,-0.081 2.423,-0.064 4.408,0.405 6.089,2.194 0.728,0.774 1.677,1.337 2.474,2.054 0.27,0.243 0.519,0.658 0.537,1.006 0.064,1.236 0.178,2.503 -0.038,3.704 -0.112,0.619 -0.815,1.508 -1.362,1.598 -1.391,0.23 -2.845,0.076 -4.308,0.076 -0.029,-0.495 -0.059,-0.82 -0.064,-1.146 -0.027,-1.729 -0.737,-2.433 -2.47,-2.436 -1.198,-0.003 -2.397,-0.04 -3.591,0.022 -0.409,0.02 -0.824,0.258 -1.203,0.457 -1.203,0.635 -0.648,1.897 -0.901,2.869 l -6.288,0 c -0.024,-0.385 -0.053,-0.705 -0.059,-1.026 -0.033,-1.61 -0.729,-2.314 -2.318,-2.322 -1.197,-0.005 -2.398,-0.053 -3.59,0.026 -0.484,0.032 -1.179,0.222 -1.376,0.569 -0.474,0.834 -0.71,1.803 -1.145,2.996 m 2.081,-28.38 19.146,0 0,14.816 -19.146,0 0,-14.816 z m 1.095,28.2 2.016,0 c 0.413,1.047 0.654,2.028 1.174,2.827 0.263,0.404 1.024,0.658 1.569,0.674 2.354,0.072 4.711,0.032 7.067,0.031 1.956,0 2.732,-0.763 2.771,-2.717 0.005,-0.24 0.025,-0.481 0.042,-0.8 l 2.176,0 c 0.279,0.994 -0.232,2.315 1.035,2.941 0.455,0.225 0.938,0.536 1.416,0.55 2.023,0.062 4.049,0.038 6.075,0.022 1.23,-0.011 3.182,-1.994 3.187,-3.222 0.008,-1.942 0.059,-3.888 -0.032,-5.826 -0.027,-0.57 -0.331,-1.27 -0.745,-1.654 -1.967,-1.828 -4.035,-3.545 -6.017,-5.358 -0.341,-0.311 -0.619,-0.887 -0.622,-1.342 -0.043,-5.084 -0.046,-10.166 0.001,-15.25 0.005,-0.5 0.3,-1.107 0.656,-1.479 2.403,-2.503 4.88,-4.937 7.277,-7.447 0.376,-0.394 0.615,-1.049 0.658,-1.601 0.097,-1.233 0.032,-2.479 0.031,-3.719 -0.003,-1.733 -1.053,-2.76 -2.823,-2.76 -12.274,-0.002 -24.549,-0.002 -36.823,0 -1.85,0 -2.642,1.02 -2.872,2.873 -0.407,3.27 0.557,5.766 3.183,7.828 1.773,1.395 3.26,3.16 4.814,4.819 0.349,0.375 0.617,0.99 0.621,1.498 0.046,5.041 0.053,10.084 -0.007,15.125 -0.007,0.558 -0.372,1.252 -0.794,1.644 -1.876,1.743 -3.817,3.418 -5.77,5.075 -0.616,0.521 -0.924,1.062 -0.882,1.898 0.071,1.402 0.207,2.842 -0.024,4.207 -0.35,2.07 0.774,3.25 2.166,4.339 0.315,0.246 0.825,0.332 1.249,0.341 1.735,0.037 3.471,0.016 5.207,0.015 2.228,0 2.928,-0.682 2.974,-2.889 0.004,-0.164 0.023,-0.327 0.046,-0.643" /><g
           transform="translate(74.3994,365.0552)"
           id="g4241"><path
             id="path4243"
             style="fill:#ffffff;fill-opacity:1;fill-rule:nonzero;stroke:none"
             d="m 0,0 c 0,-19.865 -16.104,-35.969 -35.969,-35.969 -19.866,0 -35.97,16.104 -35.97,35.969 0,19.866 16.104,35.97 35.97,35.97 C -16.104,35.97 0,19.866 0,0" /></g><g
           style="stroke-width:0.144;stroke-miterlimit:4;stroke-dasharray:none;stroke:#ff0000"
           transform="translate(74.3994,365.0552)"
           id="g4245"><path
             id="path4247"
             style="fill:none;stroke:#ff0000;stroke-width:0.144;stroke-linecap:butt;stroke-linejoin:miter;stroke-miterlimit:4;stroke-dasharray:none;stroke-opacity:1"
             d="m 0,0 c 0,-19.865 -16.104,-35.969 -35.969,-35.969 -19.866,0 -35.97,16.104 -35.97,35.969 0,19.866 16.104,35.97 35.97,35.97 C -16.104,35.97 0,19.866 0,0 Z" /></g><g
           transform="translate(48.3062,343.9146)"
           id="g4249"><path
             id="path4251"
             style="fill:#231f20;fill-opacity:1;fill-rule:evenodd;stroke:none"
             d="M 0,0 C 0.143,0.022 0.63,0.001 1.025,0.181 1.434,0.366 1.993,0.71 2.044,1.051 2.094,1.38 1.653,1.911 1.292,2.14 0.821,2.438 0.224,2.653 -0.332,2.684 c -4.44,0.244 -8.885,0.587 -13.328,0.589 -2.575,10e-4 -5.16,-0.512 -7.718,-0.934 -0.552,-0.091 -1.005,-0.785 -1.504,-1.201 0.573,-0.373 1.132,-0.773 1.729,-1.102 0.192,-0.105 0.488,-0.043 0.734,-0.023 1.233,0.102 2.464,0.245 3.699,0.318 2.549,0.151 5.102,0.415 7.648,0.357 C -6.147,0.623 -3.23,0.259 0,0 m -0.159,9.728 c 1.884,0.124 3.754,0.104 5.26,1.501 2.607,2.419 4.633,5.258 6.151,8.468 0.847,1.792 1.038,3.632 0.455,5.541 -0.991,3.238 -4.673,5.114 -8.576,4.361 -4.947,-0.953 -9.8,-5.858 -10.881,-11.077 -0.259,-1.247 -0.254,-2.547 -0.486,-3.801 -0.093,-0.503 -0.38,-1.154 -0.782,-1.385 -1.814,-1.041 -3.621,0.016 -3.689,2.063 -0.133,4.006 -1.459,7.536 -4.377,10.336 -2.573,2.468 -5.496,4.228 -9.272,3.966 -3.084,-0.215 -5.453,-1.848 -6.142,-4.375 -0.547,-2.011 -0.665,-4.087 0.501,-5.884 1.656,-2.551 3.494,-4.986 5.305,-7.433 1.208,-1.631 2.964,-2.236 4.911,-2.134 2.511,0.13 5.027,0.317 7.518,0.652 2.294,0.307 4.529,0.601 6.863,0.126 2.378,-0.484 4.824,-0.631 7.241,-0.925 m -35.876,14.525 c 0.616,2.619 1.84,4.849 4.121,6.385 4.283,2.886 8.602,2.624 12.933,0.111 0.558,-0.323 1.087,-0.695 1.745,-1.12 0.068,0.82 0.159,1.502 0.173,2.185 0.053,2.72 1.406,4.653 3.568,6.166 1.578,1.103 1.479,2.385 -0.183,3.394 -0.105,0.064 -0.203,0.151 -0.318,0.19 -2.082,0.719 -2.275,2.281 -1.848,4.128 0.068,0.034 0.144,0.109 0.208,0.099 2.001,-0.296 3.403,0.217 3.654,2.517 0.027,0.253 0.634,0.64 0.953,0.623 0.756,-0.041 1.499,-0.287 2.246,-0.457 0.021,-0.004 0.032,-0.073 0.038,-0.113 0.334,-2.187 1.516,-3.145 3.708,-2.458 0.672,-2.293 0.406,-3.032 -1.393,-4.163 -0.557,-0.35 -1.335,-0.608 -1.589,-1.119 -0.356,-0.719 -0.566,-1.712 0.363,-2.314 2.93,-1.9 4.239,-4.614 4.148,-8.06 -0.004,-0.122 0.033,-0.245 0.061,-0.365 0.008,-0.031 0.053,-0.054 0.185,-0.178 0.431,0.279 0.896,0.582 1.361,0.883 3.153,2.042 6.545,2.669 10.174,1.607 5.421,-1.588 8.442,-7.42 6.435,-12.69 C 13.999,17.641 12.995,15.8 11.754,14.246 8.342,9.97 6.965,5.082 6.906,-0.26 6.884,-2.188 6.054,-3.626 4.361,-4.279 2.304,-5.073 0.148,-5.788 -2.025,-6.066 c -6.25,-0.798 -12.531,-0.861 -18.745,0.342 -1.667,0.323 -3.297,1.031 -4.832,1.789 -1.336,0.661 -1.984,1.938 -1.99,3.476 -0.023,5.628 -1.651,10.655 -5.105,15.193 -1.46,1.917 -2.246,4.347 -3.338,6.544 l 0,2.975 z" /></g><g
           transform="translate(28.3657,355.8618)"
           id="g4253"><path
             id="path4255"
             style="fill:#231f20;fill-opacity:1;fill-rule:evenodd;stroke:none"
             d="m 0,0 c -3.021,-0.25 -5.245,1.128 -7.015,3.329 -1.182,1.471 -2.378,2.99 -3.222,4.661 -2.137,4.235 0.428,7.978 5.188,7.638 4.226,-0.3 7.021,-2.844 8.678,-6.469 C 4.547,7.153 4.754,4.812 5.206,2.607 5.414,1.591 4.799,0.899 3.871,0.673 2.602,0.363 1.292,0.217 0,0" /></g><g
           transform="translate(47.3696,355.8735)"
           id="g4257"><path
             id="path4259"
             style="fill:#231f20;fill-opacity:1;fill-rule:evenodd;stroke:none"
             d="m 0,0 c -1.293,0.228 -2.602,0.391 -3.873,0.708 -0.804,0.201 -1.346,0.771 -1.321,1.716 0.124,4.614 1.648,8.551 5.464,11.395 1.904,1.42 3.995,2.056 6.387,1.731 3.321,-0.452 5.184,-3.274 4.164,-6.492 C 9.956,6.328 7.997,4.372 6.041,2.393 4.35,0.682 2.399,-0.085 0,0" /></g><g
           transform="translate(370.563,102.6631)"
           id="g4261"><path
             id="path4263"
             style="fill:#ffffff;fill-opacity:1;fill-rule:nonzero;stroke:none"
             d="m 0,0 c 0,-19.866 -16.104,-35.97 -35.969,-35.97 -19.866,0 -35.97,16.104 -35.97,35.97 0,19.866 16.104,35.97 35.97,35.97 C -16.104,35.97 0,19.866 0,0" /></g><g
           style="stroke-width:0.144;stroke-miterlimit:4;stroke-dasharray:none;stroke:#ff0000"
           transform="translate(370.563,102.6631)"
           id="g4265"><path
             id="path4267"
             style="fill:none;stroke:#ff0000;stroke-width:0.144;stroke-linecap:butt;stroke-linejoin:miter;stroke-miterlimit:4;stroke-dasharray:none;stroke-opacity:1"
             d="m 0,0 c 0,-19.866 -16.104,-35.97 -35.969,-35.97 -19.866,0 -35.97,16.104 -35.97,35.97 0,19.866 16.104,35.97 35.97,35.97 C -16.104,35.97 0,19.866 0,0 Z" /></g><g
           transform="translate(334.7852,128.3364)"
           id="g4269"><path
             id="path4271"
             style="fill:#231f20;fill-opacity:1;fill-rule:evenodd;stroke:none"
             d="M 0,0 C 1.563,-0.007 2.63,0.998 2.636,2.483 2.642,3.902 1.51,4.956 -0.031,4.968 -1.473,4.979 -2.55,3.941 -2.58,2.516 -2.611,1.032 -1.56,0.006 0,0 m -8.834,-28.985 c 2.945,0.151 5.897,0.418 8.849,0.416 2.985,-0.004 5.97,-0.275 8.787,-0.42 l 0,3.514 -17.636,0 0,-3.51 z m 9.025,-5.24 c 0.004,-0.115 0.008,-0.231 0.013,-0.346 2.834,0.225 5.671,0.422 8.5,0.703 0.408,0.041 0.776,0.477 1.163,0.729 -0.29,0.416 -0.491,1.019 -0.889,1.207 -0.764,0.361 -1.638,0.67 -2.47,0.68 -3.997,0.043 -7.997,0.009 -11.994,-0.063 -1.106,-0.021 -2.241,-0.16 -3.294,-0.473 -0.474,-0.142 -0.781,-0.845 -1.164,-1.293 0.378,-0.314 0.728,-0.675 1.144,-0.923 0.268,-0.159 0.634,-0.209 0.956,-0.211 2.678,-0.016 5.357,-0.01 8.035,-0.01 m -0.17,-5.297 c 1.782,-2.818 4.534,-4.053 7.544,-4.561 4.344,-0.736 8.734,-1.218 13.118,-1.683 0.545,-0.057 1.476,0.539 1.677,1.049 0.208,0.523 -0.059,1.531 -0.487,1.933 -0.55,0.516 -1.448,0.801 -2.231,0.897 -2.047,0.252 -4.112,0.412 -6.174,0.49 -3.792,0.145 -7.339,0.949 -10.463,3.262 -3.115,2.306 -3.202,2.343 -6.237,-0.125 -2.182,-1.776 -4.643,-2.657 -7.363,-2.901 -2.548,-0.23 -5.116,-0.25 -7.658,-0.521 -1.199,-0.127 -2.41,-0.508 -3.515,-0.998 -0.752,-0.334 -1.018,-1.145 -0.671,-2.024 0.338,-0.859 0.971,-1.205 1.852,-1.105 3.441,0.391 6.898,0.687 10.316,1.223 3.896,0.611 7.761,1.433 10.292,5.064 m 0.224,16.055 c 2.893,0.355 6.178,0.642 9.411,1.224 0.962,0.174 2.127,0.987 2.591,1.836 1.714,3.149 1.932,6.364 -0.499,9.355 -2.659,3.272 -5.954,5.677 -9.865,7.24 -1.366,0.545 -2.715,0.535 -4.085,-0.046 -3.635,-1.547 -6.744,-3.807 -9.27,-6.838 -1.958,-2.349 -2.515,-4.951 -1.579,-7.967 0.695,-2.236 1.986,-3.605 4.266,-3.894 2.86,-0.361 5.737,-0.586 9.03,-0.91 m -22.13,-27.108 c -1.871,2.221 -3.741,4.442 -5.667,6.727 0.893,1.221 1.552,2.273 2.361,3.195 1.378,1.57 3.129,2.397 5.268,2.238 3.553,-0.261 7.098,-0.419 10.552,0.735 0.542,0.18 1.085,0.355 1.701,0.556 -1.291,0.413 -2.521,0.698 -3.659,1.196 -1.742,0.76 -2.148,1.756 -1.672,3.566 0.397,1.516 0.869,3.018 1.158,4.555 0.102,0.545 -0.065,1.314 -0.407,1.74 -1.9,2.377 -3.622,4.83 -4.209,7.891 -0.74,3.843 0.534,7.115 3.092,9.892 2.557,2.775 5.464,5.135 9.176,6.582 -1.388,1.933 -2.213,4.038 -1.45,6.367 0.276,0.843 0.911,1.705 1.621,2.243 2.309,1.748 6.475,1.579 8.308,-0.256 1.684,-1.684 2.425,-4.848 -0.069,-8.358 3.475,-1.315 6.294,-3.582 8.813,-6.199 4.287,-4.455 4.792,-9.533 1.566,-14.81 -0.73,-1.192 -1.683,-2.246 -2.429,-3.432 -0.291,-0.461 -0.502,-1.15 -0.39,-1.656 0.348,-1.565 0.898,-3.084 1.317,-4.637 0.429,-1.59 0.008,-2.664 -1.492,-3.357 -1.208,-0.559 -2.524,-0.881 -3.883,-1.34 2.821,-0.992 5.646,-1.635 8.618,-1.475 1.238,0.067 2.474,0.166 3.712,0.195 2.922,0.069 6.137,-2.179 7.077,-4.945 0.079,-0.23 0.047,-0.59 -0.086,-0.787 -1.553,-2.31 -2.751,-4.918 -5.279,-6.426 l -0.248,0 c -0.608,0.506 -1.142,1.25 -1.841,1.469 -1.323,0.416 -2.733,0.6 -4.121,0.758 -5.449,0.623 -10.964,0.99 -15.605,4.545 -3.076,-2.801 -6.862,-3.651 -10.82,-4.076 -2.75,-0.295 -5.495,-0.647 -8.232,-1.043 -0.997,-0.145 -2.106,-0.301 -2.284,-1.653 l -0.497,0 z" /></g><g
           transform="translate(336.375,109.3008)"
           id="g4273"><path
             id="path4275"
             style="fill:#231f20;fill-opacity:1;fill-rule:evenodd;stroke:none"
             d="m 0,0 -3.089,0 0,3.66 -2.785,0 0,3.252 2.683,0 0,3.612 3.072,0 0,-3.488 C 0.912,6.99 1.794,6.951 2.744,6.908 l 0,-3.185 L 0,3.723 0,0 Z" /></g><g
           style="stroke-width:0.144;stroke-miterlimit:4;stroke-dasharray:none;stroke:#ff0000"
           transform="translate(73.3994,74.0059)"
           id="g4277"><path
             id="path4279"
             style="fill:#ffffff;fill-opacity:1;fill-rule:nonzero;stroke:#ff0000;stroke-width:0.144;stroke-linecap:butt;stroke-linejoin:miter;stroke-miterlimit:4;stroke-dasharray:none;stroke-opacity:1"
             d="m 0,0 c 19.865,0 35.97,-16.104 35.97,-35.97 0,-19.864 -16.105,-35.969 -35.97,-35.969 -19.866,0 -35.97,16.105 -35.97,35.969 C -35.97,-16.104 -19.866,0 0,0" /></g><g
           transform="translate(63.543,58.8594)"
           id="g4281"><path
             id="path4283"
             style="fill:#231f20;fill-opacity:1;fill-rule:evenodd;stroke:none"
             d="m 0,0 c 0.002,0.121 0.002,0.242 0.004,0.363 -1.098,0.47 -2.197,0.94 -3.332,1.424 l 0,-3.067 C -2.117,-0.813 -1.059,-0.407 0,0 M 6.875,1.969 C 5.477,-1.074 2.896,-2.068 0.262,-3 c -0.969,-0.342 -1.942,-0.7 -2.86,-1.155 -0.404,-0.199 -0.798,-0.604 -0.99,-1.012 -1.74,-3.692 -3.43,-7.408 -5.144,-11.112 -1.491,-3.219 -3.028,-6.415 -4.459,-9.66 -0.27,-0.613 -0.37,-1.501 -0.133,-2.098 0.879,-2.222 3.443,-3.002 5.519,-1.882 0.567,0.307 1.268,0.367 1.909,0.542 -0.065,-0.541 -0.178,-1.083 -0.176,-1.623 0,-0.321 0.152,-0.898 0.285,-0.913 0.377,-0.041 0.904,0.025 1.146,0.271 0.487,0.491 0.846,1.116 1.219,1.709 2.547,4.065 5.981,7.113 10.33,9.152 0.395,0.185 0.778,0.715 0.875,1.149 0.594,2.615 1.553,5.061 3.268,7.136 0.379,0.457 1.119,0.614 1.691,0.909 0.071,-0.601 0.311,-1.243 0.176,-1.794 -0.352,-1.438 -0.914,-2.825 -1.299,-4.258 -0.254,-0.946 -0.392,-1.931 -0.494,-2.908 -0.156,-1.468 -0.082,-2.973 -0.379,-4.405 -0.644,-3.127 -2.31,-5.787 -4.086,-8.398 -1.34,-1.97 -2.515,-4.056 -3.705,-6.127 -0.281,-0.49 -0.32,-1.119 -0.482,-1.732 l 27.853,0 c 0.074,0.686 0.205,1.297 0.195,1.906 -0.05,3.379 0.112,6.786 -0.257,10.134 -0.881,7.946 -4.039,14.895 -9.647,20.706 -2.578,2.672 -5.406,4.445 -9.285,3.832 C 11.17,-4.655 10.996,-4.606 10.838,-4.638 9.361,-4.93 8.732,-4.139 8.449,-2.833 8.256,-1.948 8.023,-1.067 7.75,-0.204 7.545,0.445 7.244,1.064 6.875,1.969 m 4.705,-3.146 c 4.166,0.491 7.422,-1.149 10.311,-3.675 5.502,-4.808 8.82,-10.926 10.591,-17.951 1.524,-6.041 2.059,-15.119 1.227,-21.502 l -35.365,0 c 0.039,2.086 0.429,4.131 1.402,5.924 1.369,2.529 2.988,4.926 4.568,7.334 1.239,1.891 2.836,3.573 3.264,5.906 0.08,0.431 0.135,0.867 0.233,1.513 -3.733,-1.63 -6.651,-3.879 -8.752,-7.135 -0.582,-0.901 -1.129,-1.825 -1.719,-2.721 -1.272,-1.934 -3.846,-1.987 -5.24,-0.114 -0.172,0.231 -0.301,0.491 -0.491,0.804 -3.603,-0.927 -5.89,0.885 -7.504,3.85 -0.312,0.573 -0.441,1.481 -0.218,2.072 1.316,3.512 2.695,7.003 4.179,10.445 1.422,3.293 3.049,6.498 4.498,9.781 1.338,3.032 2.096,6.176 1.334,9.521 -0.082,0.358 -0.066,0.74 -0.085,1.111 -0.008,0.12 0.019,0.241 0.029,0.357 2.244,0.48 4.629,-0.182 9.203,-2.55 0.775,0.997 1.519,2.023 2.336,2.988 0.752,0.888 1.566,1.003 2.574,0.233 1.475,-1.127 2.447,-2.54 2.983,-4.293 0.191,-0.625 0.417,-1.239 0.642,-1.898" /></g><g
           transform="translate(63.0723,50.6729)"
           id="g4285"><path
             id="path4287"
             style="fill:#231f20;fill-opacity:1;fill-rule:evenodd;stroke:none"
             d="M 0,0 C 0.562,-0.277 1.453,-0.437 1.605,-0.861 1.814,-1.442 1.674,-2.369 1.314,-2.897 0.205,-4.521 -1.439,-5.477 -3.363,-5.87 -4.393,-6.081 -4.908,-5.588 -4.945,-4.525 -5.021,-2.382 -2.588,-0.205 0,0" /></g><g
           transform="translate(51.4355,32.1289)"
           id="g4289"><path
             id="path4291"
             style="fill:#231f20;fill-opacity:1;fill-rule:evenodd;stroke:none"
             d="M 0,0 C 0.016,1.475 0.605,2.253 1.654,2.267 2.744,2.282 2.93,1.531 2.945,0.691 2.971,-0.585 2.18,-1.419 1.016,-1.401 -0.025,-1.385 0.02,-0.629 0,0" /></g><g
           style="stroke-width:0.144;stroke-miterlimit:4;stroke-dasharray:none;stroke:#ff0000"
           transform="translate(260.5718,400.6421)"
           id="g4293"><path
             id="path4295"
             style="fill:#ffffff;fill-opacity:1;fill-rule:nonzero;stroke:#ff0000;stroke-width:0.144;stroke-linecap:butt;stroke-linejoin:miter;stroke-miterlimit:4;stroke-dasharray:none;stroke-opacity:1"
             d="M 0,0 C 19.865,0 35.969,-16.104 35.969,-35.969 35.969,-55.834 19.865,-71.94 0,-71.94 c -19.866,0 -35.97,16.106 -35.97,35.971 C -35.97,-16.104 -19.866,0 0,0" /></g><path
           id="path4297"
           style="fill:#231f20;fill-opacity:1;fill-rule:evenodd;stroke:none"
           d="m 269.584,359.046 -17.657,0 0,-2.508 17.657,0 0,2.508 z m -17.678,11.633 17.678,0 0,2.561 -17.678,0 0,-2.561 z m 0.297,14.28 2.453,0 c 0.433,0.996 0.716,1.917 1.222,2.692 0.228,0.348 0.896,0.555 1.372,0.567 2.223,0.058 4.449,0.027 6.674,0.025 1.675,-10e-4 2.492,-0.811 2.521,-2.488 0.004,-0.228 0.027,-0.456 0.047,-0.766 l 2.907,0 c 0.037,1.028 -0.164,2.148 0.925,2.764 0.377,0.214 0.801,0.438 1.216,0.469 0.955,0.069 1.927,-0.064 2.874,0.042 1.421,0.159 2.485,-0.27 3.41,-1.38 0.52,-0.623 0.873,-1.158 0.835,-2.009 -0.073,-1.608 -0.062,-3.224 -0.003,-4.833 0.029,-0.765 -0.236,-1.282 -0.774,-1.793 -1.612,-1.533 -3.207,-3.086 -4.744,-4.693 -0.351,-0.368 -0.623,-0.979 -0.628,-1.481 -0.047,-4.641 -0.045,-9.284 -0.002,-13.926 0.004,-0.468 0.258,-1.045 0.588,-1.382 2.201,-2.246 4.476,-4.422 6.669,-6.676 0.375,-0.385 0.61,-1.029 0.663,-1.577 0.103,-1.065 0.03,-2.146 0.03,-3.22 0,-1.996 -0.903,-2.898 -2.901,-2.898 -11.279,-0.001 -22.559,-0.001 -33.838,0 -1.738,0 -2.456,0.936 -2.683,2.652 -0.428,3.223 0.593,5.642 3.187,7.611 1.515,1.151 2.783,2.637 4.095,4.033 0.348,0.371 0.627,0.975 0.632,1.475 0.048,4.641 0.048,9.284 0.001,13.926 -0.005,0.502 -0.264,1.115 -0.611,1.482 -1.532,1.612 -3.178,3.115 -4.694,4.742 -0.414,0.442 -0.674,1.16 -0.729,1.775 -0.11,1.257 0.121,2.553 -0.069,3.791 -0.28,1.827 0.598,2.982 1.886,3.981 0.274,0.213 0.673,0.347 1.021,0.363 1.073,0.046 2.148,0.017 3.223,0.017 2.355,0 2.942,-0.543 3.111,-2.865 0.008,-0.11 0.058,-0.218 0.114,-0.42" /><g
           transform="translate(445.5811,365.0547)"
           id="g4299"><path
             id="path4301"
             style="fill:#ffffff;fill-opacity:1;fill-rule:nonzero;stroke:none"
             d="m 0,0 c 0,-19.865 -16.105,-35.969 -35.97,-35.969 -19.865,0 -35.969,16.104 -35.969,35.969 0,19.866 16.104,35.97 35.969,35.97 C -16.105,35.97 0,19.866 0,0" /></g><g
           style="stroke-width:0.144;stroke-miterlimit:4;stroke-dasharray:none;stroke:#ff0000"
           transform="translate(445.5811,365.0547)"
           id="g4303"><path
             id="path4305"
             style="fill:none;stroke:#ff0000;stroke-width:0.144;stroke-linecap:butt;stroke-linejoin:miter;stroke-miterlimit:4;stroke-dasharray:none;stroke-opacity:1"
             d="m 0,0 c 0,-19.865 -16.105,-35.969 -35.97,-35.969 -19.865,0 -35.969,16.104 -35.969,35.969 0,19.866 16.104,35.97 35.969,35.97 C -16.105,35.97 0,19.866 0,0 Z" /></g><g
           transform="translate(409.5459,392.3901)"
           id="g4307"><path
             id="path4309"
             style="fill:#231f20;fill-opacity:1;fill-rule:evenodd;stroke:none"
             d="m 0,0 c -1.255,-0.014 -2.06,-0.821 -2.026,-2.033 0.03,-1.054 0.948,-1.858 2.124,-1.86 1.2,-0.002 1.886,0.733 1.875,2.008 C 1.961,-0.631 1.287,0.014 0,0 m 0.187,-34.031 c 1.873,0.155 3.84,0.272 5.794,0.5 0.745,0.087 1.896,0.037 1.832,1.08 -0.023,0.387 -1.253,0.985 -1.944,1 -3.902,0.098 -7.807,0.081 -11.709,0.019 -0.783,-0.013 -1.961,-0.026 -1.969,-1.14 -0.008,-1.026 1.129,-1.065 1.882,-1.133 1.997,-0.176 4.007,-0.222 6.114,-0.326 m -0.22,5.057 c 0.002,0.094 0.003,0.189 0.005,0.283 2.011,0 4.023,-0.039 6.032,0.02 0.767,0.023 1.905,-0.051 1.877,1.048 -0.024,1 -1.124,1.086 -1.909,1.104 -3.559,0.084 -7.119,0.105 -10.679,0.127 -0.616,0.004 -1.279,0.016 -1.836,-0.195 -0.504,-0.192 -0.894,-0.685 -1.334,-1.044 0.452,-0.33 0.88,-0.902 1.36,-0.949 2.153,-0.212 4.322,-0.277 6.484,-0.394 m -1.324,10.192 0,-3.488 2.858,0 0,3.534 2.643,0 0,3.036 -2.726,0 0,3.302 -2.814,0 c 0,-0.618 0.003,-1.156 0,-1.693 -0.012,-1.83 0.165,-1.633 -1.591,-1.651 -0.37,-0.004 -0.739,-0.043 -1.104,-0.065 l 0,-2.975 2.734,0 z M 1.475,3.26 C 1.5,3.231 1.522,3.182 1.551,3.176 5.531,2.458 6.604,-1.961 4.441,-5.165 4.272,-5.416 4.115,-5.675 4.08,-5.729 c 2.26,-1.57 4.588,-2.969 6.658,-4.679 3.003,-2.479 5.075,-5.59 4.896,-9.697 -0.142,-3.234 -1.707,-5.934 -3.7,-8.353 -0.81,-0.985 -1.05,-1.84 -0.627,-3.031 0.412,-1.162 0.647,-2.387 0.955,-3.587 0.393,-1.523 0.024,-2.489 -1.427,-3.111 -1.109,-0.475 -2.318,-0.718 -3.567,-1.35 2.142,-0.392 4.27,-0.919 6.428,-1.133 1.604,-0.16 3.248,0.079 4.873,0.151 3.085,0.139 6.036,-1.864 6.988,-4.773 0.06,-0.19 0.052,-0.477 -0.051,-0.633 -1.057,-1.575 -2.086,-3.172 -3.238,-4.674 -0.448,-0.582 -1.19,-0.942 -1.86,-1.449 -1.271,1.712 -3.084,1.802 -4.839,2.034 -2.762,0.363 -5.539,0.634 -8.283,1.103 -2.659,0.456 -5.15,1.411 -7.291,3.29 -3.087,-3.12 -7.13,-3.458 -11.138,-3.933 -2.228,-0.264 -4.46,-0.539 -6.661,-0.962 -0.895,-0.171 -1.71,-0.747 -2.942,-1.312 -0.645,0.653 -1.628,1.505 -2.434,2.502 -0.823,1.02 -1.501,2.162 -2.174,3.292 -0.152,0.255 -0.146,0.74 -0.007,1.014 1.796,3.542 3.984,4.757 7.986,4.411 3.165,-0.273 6.27,-0.092 9.281,1.002 0.277,0.101 0.544,0.231 0.855,0.363 -1.154,0.311 -2.257,0.51 -3.284,0.909 -1.714,0.664 -2.168,1.739 -1.637,3.496 0.435,1.442 1.346,2.945 1.173,4.31 -0.169,1.338 -1.441,2.537 -2.228,3.799 -2,3.207 -3.204,6.588 -1.816,10.35 0.475,1.284 1.156,2.572 2.036,3.611 2.474,2.925 5.425,5.289 8.806,6.733 -0.441,1.358 -1.125,2.697 -1.276,4.093 -0.286,2.647 0.886,4.134 3.427,4.911 0.247,0.075 0.481,0.194 0.721,0.292 l 2.792,0 z" /></g><g
           style="stroke-width:0.144;stroke-miterlimit:4;stroke-dasharray:none;stroke:#ff0000"
           transform="translate(148.3345,335.2163)"
           id="g4311"><path
             id="path4313"
             style="fill:#ffffff;fill-opacity:1;fill-rule:nonzero;stroke:#ff0000;stroke-width:0.144;stroke-linecap:butt;stroke-linejoin:miter;stroke-miterlimit:4;stroke-dasharray:none;stroke-opacity:1"
             d="m 0,0 c 19.865,0 35.969,-16.104 35.969,-35.97 0,-19.865 -16.104,-35.969 -35.969,-35.969 -19.867,0 -35.971,16.104 -35.971,35.969 C -35.971,-16.104 -19.867,0 0,0" /></g><g
           transform="translate(127.7622,296.3726)"
           id="g4315"><path
             id="path4317"
             style="fill:#231f20;fill-opacity:1;fill-rule:evenodd;stroke:none"
             d="m 0,0 c -1.654,-0.098 -2.725,-1.116 -2.67,-2.453 0.027,-0.641 0.266,-0.922 0.967,-0.77 C -0.252,-2.906 0.447,-1.662 0,0 M 10.119,16.561 C 7.865,16.375 5.621,14.625 5.32,12.699 5.098,11.271 5.76,10.618 7.121,10.94 c 1.752,0.415 3.027,1.554 4.08,2.914 0.369,0.474 0.69,1.315 0.508,1.787 -0.172,0.444 -1.031,0.624 -1.59,0.92 M 40.014,-8.74 c 0.138,0.015 0.273,0.031 0.41,0.049 -0.559,3.404 -0.885,6.865 -1.725,10.199 -1.689,6.705 -5.447,12.131 -10.972,16.305 -1.704,1.288 -3.674,1.908 -5.788,1.91 -0.511,0.002 -1.355,-0.427 -1.47,-0.824 -0.227,-0.788 0.609,-0.878 1.207,-1.121 1.424,-0.58 2.931,-1.078 4.181,-1.936 3.75,-2.576 6.555,-5.992 8.36,-10.197 2.193,-5.102 2.849,-10.477 2.887,-15.971 0.005,-0.949 0.085,-1.907 0.238,-2.844 0.117,-0.723 0.431,-1.418 1.351,-1.405 0.911,0.012 1.264,0.684 1.301,1.43 0.072,1.465 0.02,2.936 0.02,4.405 M 5,28.693 c 3.428,0.307 6.254,-0.999 9.043,-2.59 0.723,0.938 1.396,1.918 2.18,2.806 0.963,1.096 1.324,1.076 2.517,0.296 1.584,-1.031 2.541,-2.483 3.047,-4.273 0.15,-0.532 0.356,-1.048 0.547,-1.605 4.627,0.469 8.184,-1.614 11.268,-4.711 5.41,-5.436 8.384,-12.095 9.677,-19.581 0.887,-5.133 0.944,-10.299 0.684,-15.48 -0.027,-0.547 -0.133,-1.09 -0.211,-1.69 l -34.475,0 c 0.246,1.317 0.409,2.594 0.729,3.83 0.752,2.914 2.449,5.319 4.267,7.658 1.825,2.352 3.797,4.637 4.284,7.739 0.017,0.111 0.011,0.226 0.025,0.526 C 15.895,0.598 13.58,-0.816 11.848,-2.986 10.563,-4.598 9.51,-6.395 8.369,-8.119 7.879,-8.863 7.434,-9.641 6.342,-9.468 5.254,-9.298 4.834,-8.546 4.664,-7.566 4.645,-7.455 4.57,-7.354 4.49,-7.176 3.578,-8.154 2.547,-7.99 1.412,-7.689 c -2.435,0.646 -4.529,1.684 -5.781,4.033 -0.428,0.799 -0.574,1.538 -0.242,2.375 1.109,2.806 2.14,5.648 3.345,8.414 1.75,4.008 3.579,7.984 5.459,11.931 1.221,2.56 1.342,5.196 0.957,7.924 -0.072,0.51 -0.091,1.028 -0.15,1.705" /></g><g
           style="stroke-width:0.144;stroke-miterlimit:4;stroke-dasharray:none;stroke:#ff0000"
           transform="translate(259.2041,137.9565)"
           id="g4319"><path
             id="path4321"
             style="fill:#ffffff;fill-opacity:1;fill-rule:nonzero;stroke:#ff0000;stroke-width:0.144;stroke-linecap:butt;stroke-linejoin:miter;stroke-miterlimit:4;stroke-dasharray:none;stroke-opacity:1"
             d="M 0,0 C 19.865,0 35.969,-16.104 35.969,-35.969 35.969,-55.834 19.865,-71.94 0,-71.94 c -19.866,0 -35.97,16.106 -35.97,35.971 C -35.97,-16.104 -19.866,0 0,0" /></g><path
           id="path4323"
           style="fill:#231f20;fill-opacity:1;fill-rule:evenodd;stroke:none"
           d="m 277.636,83.758 -36.445,0 0,-3.163 36.445,0 0,3.163 z m -33.103,3.127 29.839,0 c -1.525,1.635 -3.097,3.36 -4.729,5.028 -0.236,0.241 -0.757,0.284 -1.145,0.285 -6.065,0.018 -12.13,0.018 -18.194,0.001 -0.388,-0.002 -0.911,-0.042 -1.142,-0.283 -1.618,-1.69 -3.176,-3.437 -4.629,-5.031 m 3.194,36.573 c -0.985,0 -2.216,0.011 -3.448,-0.002 -1.215,-0.014 -1.988,-0.771 -2.009,-1.975 -0.018,-0.991 -0.086,-1.991 0.028,-2.968 0.064,-0.543 0.329,-1.189 0.724,-1.542 1.353,-1.208 2.769,-2.356 4.234,-3.424 0.516,-0.377 1.244,-0.646 1.878,-0.65 6.068,-0.048 12.141,0.078 18.206,-0.081 2.423,-0.063 4.408,0.406 6.089,2.195 0.728,0.774 1.677,1.337 2.474,2.053 0.27,0.244 0.519,0.659 0.537,1.007 0.064,1.236 0.178,2.503 -0.038,3.703 -0.111,0.62 -0.815,1.509 -1.362,1.599 -1.391,0.23 -2.845,0.076 -4.308,0.076 -0.029,-0.495 -0.059,-0.82 -0.064,-1.146 -0.027,-1.729 -0.737,-2.433 -2.47,-2.436 -1.198,-0.003 -2.397,-0.04 -3.591,0.022 -0.409,0.02 -0.824,0.257 -1.203,0.457 -1.203,0.634 -0.648,1.897 -0.901,2.869 l -6.288,0 c -0.024,-0.385 -0.053,-0.705 -0.059,-1.027 -0.032,-1.609 -0.729,-2.313 -2.318,-2.321 -1.197,-0.005 -2.398,-0.054 -3.59,0.026 -0.484,0.032 -1.179,0.222 -1.376,0.569 -0.474,0.834 -0.71,1.803 -1.145,2.996 m 2.082,-28.381 19.146,0 0,14.816 -19.146,0 0,-14.816 z m 1.094,28.201 2.016,0 c 0.413,1.047 0.654,2.028 1.174,2.826 0.263,0.405 1.024,0.659 1.569,0.675 2.354,0.072 4.711,0.032 7.067,0.031 1.956,0 2.732,-0.763 2.771,-2.717 0.005,-0.24 0.025,-0.481 0.042,-0.8 l 2.176,0 c 0.279,0.994 -0.232,2.314 1.035,2.94 0.455,0.226 0.938,0.537 1.416,0.551 2.023,0.062 4.049,0.038 6.075,0.022 1.23,-0.011 3.182,-1.994 3.187,-3.222 0.008,-1.942 0.059,-3.888 -0.032,-5.826 -0.027,-0.57 -0.331,-1.27 -0.745,-1.654 -1.967,-1.828 -4.035,-3.545 -6.017,-5.358 -0.341,-0.31 -0.618,-0.887 -0.622,-1.343 -0.043,-5.083 -0.046,-10.166 0.001,-15.25 0.005,-0.5 0.3,-1.107 0.656,-1.477 2.403,-2.505 4.88,-4.938 7.277,-7.448 0.376,-0.394 0.615,-1.048 0.658,-1.602 0.098,-1.232 0.032,-2.478 0.031,-3.718 -0.003,-1.732 -1.053,-2.761 -2.823,-2.761 -12.274,-0.001 -24.548,-0.001 -36.823,0 -1.849,0 -2.642,1.021 -2.872,2.874 -0.407,3.269 0.557,5.765 3.183,7.829 1.773,1.394 3.26,3.16 4.814,4.818 0.349,0.375 0.617,0.99 0.621,1.497 0.046,5.041 0.053,10.085 -0.007,15.125 -0.007,0.56 -0.372,1.253 -0.794,1.646 -1.875,1.742 -3.817,3.417 -5.77,5.074 -0.616,0.521 -0.924,1.062 -0.882,1.898 0.071,1.402 0.207,2.842 -0.024,4.207 -0.35,2.07 0.774,3.25 2.166,4.339 0.315,0.246 0.825,0.332 1.249,0.341 1.735,0.037 3.471,0.016 5.207,0.015 2.228,0 2.929,-0.682 2.974,-2.889 0.004,-0.164 0.023,-0.327 0.046,-0.643" /><g
           transform="translate(445.6201,100.9863)"
           id="g4325"><path
             id="path4327"
             style="fill:#ffffff;fill-opacity:1;fill-rule:nonzero;stroke:none"
             d="m 0,0 c 0,-19.865 -16.104,-35.969 -35.969,-35.969 -19.865,0 -35.969,16.104 -35.969,35.969 0,19.866 16.104,35.97 35.969,35.97 C -16.104,35.97 0,19.866 0,0" /></g><g
           style="stroke-width:0.144;stroke-miterlimit:4;stroke-dasharray:none;stroke:#ff0000"
           transform="translate(445.6201,100.9863)"
           id="g4329"><path
             id="path4331"
             style="fill:none;stroke:#ff0000;stroke-width:0.144;stroke-linecap:butt;stroke-linejoin:miter;stroke-miterlimit:4;stroke-dasharray:none;stroke-opacity:1"
             d="m 0,0 c 0,-19.865 -16.104,-35.969 -35.969,-35.969 -19.865,0 -35.969,16.104 -35.969,35.969 0,19.866 16.104,35.97 35.969,35.97 C -16.104,35.97 0,19.866 0,0 Z" /></g><g
           transform="translate(409.8428,126.6597)"
           id="g4333"><path
             id="path4335"
             style="fill:#231f20;fill-opacity:1;fill-rule:evenodd;stroke:none"
             d="M 0,0 C 1.563,-0.007 2.63,0.998 2.636,2.483 2.642,3.902 1.51,4.956 -0.031,4.968 -1.473,4.979 -2.55,3.941 -2.58,2.516 -2.611,1.032 -1.56,0.006 0,0 m -8.834,-28.984 c 2.945,0.149 5.897,0.416 8.849,0.414 2.985,-0.004 5.97,-0.273 8.787,-0.42 l 0,3.514 -17.636,0 0,-3.508 z m 9.025,-5.24 c 0.004,-0.117 0.008,-0.233 0.013,-0.348 2.834,0.225 5.671,0.424 8.5,0.705 0.408,0.041 0.776,0.475 1.163,0.729 -0.29,0.416 -0.491,1.019 -0.889,1.207 -0.764,0.361 -1.638,0.67 -2.47,0.678 -3.997,0.045 -7.997,0.011 -11.994,-0.063 -1.106,-0.019 -2.241,-0.158 -3.294,-0.473 -0.474,-0.14 -0.781,-0.843 -1.164,-1.293 0.378,-0.314 0.728,-0.673 1.144,-0.921 0.268,-0.161 0.634,-0.209 0.956,-0.213 2.678,-0.014 5.357,-0.008 8.035,-0.008 m -0.17,-5.299 c 1.782,-2.816 4.534,-4.051 7.544,-4.56 4.344,-0.737 8.734,-1.219 13.118,-1.682 0.545,-0.059 1.475,0.537 1.678,1.047 0.207,0.523 -0.06,1.531 -0.488,1.933 -0.549,0.516 -1.448,0.803 -2.231,0.899 -2.047,0.252 -4.112,0.41 -6.174,0.488 -3.792,0.145 -7.339,0.951 -10.463,3.264 -3.115,2.306 -3.202,2.343 -6.237,-0.125 -2.182,-1.776 -4.643,-2.657 -7.363,-2.903 -2.548,-0.228 -5.116,-0.25 -7.658,-0.519 -1.199,-0.127 -2.41,-0.508 -3.515,-1 -0.752,-0.332 -1.018,-1.145 -0.671,-2.024 0.338,-0.857 0.971,-1.205 1.852,-1.103 3.441,0.391 6.898,0.685 10.316,1.223 3.896,0.611 7.761,1.433 10.292,5.062 m 0.224,16.055 c 2.893,0.355 6.178,0.644 9.411,1.226 0.962,0.174 2.127,0.985 2.591,1.836 1.714,3.147 1.932,6.362 -0.499,9.354 -2.659,3.272 -5.954,5.677 -9.865,7.24 -1.366,0.545 -2.715,0.535 -4.085,-0.046 -3.635,-1.547 -6.744,-3.807 -9.27,-6.838 -1.958,-2.35 -2.515,-4.952 -1.579,-7.966 0.695,-2.236 1.986,-3.607 4.266,-3.896 2.86,-0.361 5.737,-0.584 9.03,-0.91 m -22.13,-27.108 c -1.871,2.221 -3.741,4.444 -5.667,6.729 0.893,1.221 1.552,2.271 2.361,3.193 1.378,1.572 3.129,2.397 5.268,2.24 3.553,-0.261 7.098,-0.419 10.552,0.733 0.542,0.181 1.085,0.355 1.701,0.558 -1.291,0.413 -2.521,0.698 -3.659,1.194 -1.742,0.762 -2.148,1.756 -1.672,3.566 0.397,1.518 0.869,3.02 1.158,4.555 0.102,0.547 -0.065,1.314 -0.407,1.742 -1.9,2.375 -3.622,4.83 -4.209,7.889 -0.74,3.844 0.534,7.116 3.092,9.893 2.557,2.775 5.464,5.135 9.176,6.582 -1.388,1.933 -2.213,4.038 -1.45,6.367 0.276,0.843 0.911,1.705 1.621,2.243 2.309,1.748 6.475,1.579 8.308,-0.256 1.684,-1.684 2.425,-4.848 -0.069,-8.358 3.475,-1.315 6.294,-3.582 8.813,-6.199 4.287,-4.455 4.792,-9.534 1.566,-14.809 -0.73,-1.194 -1.683,-2.248 -2.429,-3.432 -0.291,-0.463 -0.502,-1.15 -0.39,-1.656 0.348,-1.567 0.898,-3.086 1.317,-4.637 0.429,-1.59 0.008,-2.666 -1.492,-3.359 -1.208,-0.557 -2.524,-0.881 -3.883,-1.338 2.821,-0.992 5.646,-1.637 8.618,-1.477 1.238,0.069 2.474,0.166 3.712,0.196 2.922,0.07 6.136,-2.178 7.078,-4.944 0.078,-0.232 0.047,-0.592 -0.086,-0.789 -1.553,-2.308 -2.752,-4.916 -5.279,-6.426 l -0.248,0 c -0.609,0.508 -1.143,1.25 -1.842,1.471 -1.323,0.414 -2.733,0.598 -4.121,0.756 -5.449,0.623 -10.964,0.992 -15.605,4.545 -3.076,-2.801 -6.862,-3.649 -10.82,-4.074 -2.75,-0.297 -5.495,-0.649 -8.232,-1.045 -0.997,-0.145 -2.106,-0.299 -2.284,-1.653 l -0.497,0 z" /></g><g
           transform="translate(411.4326,107.625)"
           id="g4337"><path
             id="path4339"
             style="fill:#231f20;fill-opacity:1;fill-rule:evenodd;stroke:none"
             d="m 0,0 -3.089,0 0,3.66 -2.785,0 0,3.252 2.683,0 0,3.611 3.072,0 0,-3.488 C 0.912,6.989 1.794,6.95 2.744,6.908 l 0,-3.187 L 0,3.721 0,0 Z" /></g><g
           style="stroke-width:0.144;stroke-miterlimit:4;stroke-dasharray:none;stroke:#ff0000"
           transform="translate(148.2524,73.0059)"
           id="g4341"><path
             id="path4343"
             style="fill:#ffffff;fill-opacity:1;fill-rule:nonzero;stroke:#ff0000;stroke-width:0.144;stroke-linecap:butt;stroke-linejoin:miter;stroke-miterlimit:4;stroke-dasharray:none;stroke-opacity:1"
             d="m 0,0 c 19.865,0 35.97,-16.104 35.97,-35.97 0,-19.865 -16.105,-35.97 -35.97,-35.97 -19.866,0 -35.97,16.105 -35.97,35.97 C -35.97,-16.104 -19.866,0 0,0" /></g><g
           transform="translate(138.396,57.8594)"
           id="g4345"><path
             id="path4347"
             style="fill:#231f20;fill-opacity:1;fill-rule:evenodd;stroke:none"
             d="m 0,0 c 0.002,0.121 0.002,0.242 0.004,0.363 -1.098,0.47 -2.197,0.94 -3.332,1.424 l 0,-3.067 C -2.117,-0.813 -1.059,-0.407 0,0 M 6.875,1.969 C 5.477,-1.074 2.896,-2.068 0.262,-3 c -0.969,-0.342 -1.942,-0.7 -2.86,-1.155 -0.404,-0.199 -0.798,-0.604 -0.99,-1.012 -1.74,-3.692 -3.43,-7.408 -5.144,-11.112 -1.491,-3.219 -3.028,-6.415 -4.459,-9.66 -0.27,-0.613 -0.37,-1.501 -0.133,-2.098 0.879,-2.222 3.443,-3.002 5.519,-1.882 0.567,0.307 1.268,0.367 1.909,0.542 -0.065,-0.541 -0.178,-1.083 -0.176,-1.623 0,-0.321 0.152,-0.898 0.285,-0.913 0.377,-0.041 0.904,0.025 1.146,0.271 0.487,0.491 0.846,1.116 1.219,1.709 2.547,4.065 5.981,7.113 10.33,9.152 0.395,0.185 0.778,0.715 0.875,1.149 0.594,2.615 1.553,5.061 3.268,7.136 0.379,0.457 1.119,0.614 1.691,0.909 0.071,-0.601 0.311,-1.243 0.176,-1.794 -0.352,-1.438 -0.914,-2.825 -1.299,-4.258 -0.254,-0.946 -0.392,-1.931 -0.494,-2.908 -0.156,-1.468 -0.082,-2.973 -0.379,-4.405 -0.644,-3.127 -2.31,-5.787 -4.086,-8.399 -1.34,-1.97 -2.515,-4.056 -3.705,-6.127 -0.281,-0.49 -0.32,-1.119 -0.482,-1.732 l 27.853,0 c 0.074,0.686 0.205,1.297 0.195,1.906 -0.05,3.379 0.112,6.788 -0.257,10.135 -0.881,7.946 -4.039,14.895 -9.647,20.706 -2.578,2.672 -5.406,4.445 -9.285,3.832 C 11.17,-4.655 10.996,-4.606 10.838,-4.638 9.361,-4.93 8.732,-4.139 8.449,-2.833 8.256,-1.948 8.023,-1.067 7.75,-0.204 7.545,0.445 7.244,1.064 6.875,1.969 m 4.705,-3.146 c 4.166,0.491 7.422,-1.149 10.311,-3.675 5.502,-4.808 8.82,-10.926 10.591,-17.951 1.524,-6.041 2.059,-15.12 1.227,-21.503 l -35.365,0 c 0.039,2.086 0.429,4.131 1.402,5.924 1.369,2.529 2.988,4.926 4.568,7.335 1.239,1.891 2.836,3.573 3.264,5.906 0.08,0.431 0.135,0.867 0.233,1.513 -3.733,-1.63 -6.651,-3.879 -8.752,-7.135 -0.582,-0.901 -1.129,-1.825 -1.719,-2.722 -1.272,-1.934 -3.846,-1.987 -5.24,-0.114 -0.172,0.231 -0.301,0.491 -0.491,0.806 -3.603,-0.929 -5.89,0.884 -7.504,3.849 -0.312,0.573 -0.441,1.481 -0.218,2.072 1.316,3.512 2.695,7.003 4.179,10.445 1.422,3.293 3.049,6.498 4.498,9.781 1.338,3.032 2.096,6.176 1.334,9.521 -0.082,0.358 -0.066,0.74 -0.085,1.111 -0.008,0.12 0.019,0.241 0.029,0.357 2.244,0.48 4.629,-0.182 9.203,-2.55 0.775,0.997 1.519,2.023 2.336,2.988 0.752,0.888 1.566,1.003 2.574,0.233 1.475,-1.127 2.447,-2.54 2.983,-4.293 0.191,-0.625 0.417,-1.239 0.642,-1.898" /></g><g
           transform="translate(137.9253,49.6729)"
           id="g4349"><path
             id="path4351"
             style="fill:#231f20;fill-opacity:1;fill-rule:evenodd;stroke:none"
             d="M 0,0 C 0.562,-0.277 1.453,-0.437 1.605,-0.861 1.814,-1.442 1.674,-2.369 1.314,-2.897 0.205,-4.521 -1.439,-5.477 -3.363,-5.87 -4.393,-6.081 -4.908,-5.588 -4.945,-4.525 -5.021,-2.382 -2.588,-0.205 0,0" /></g><g
           transform="translate(126.2886,31.1289)"
           id="g4353"><path
             id="path4355"
             style="fill:#231f20;fill-opacity:1;fill-rule:evenodd;stroke:none"
             d="M 0,0 C 0.016,1.475 0.605,2.253 1.654,2.267 2.744,2.282 2.93,1.531 2.945,0.691 2.971,-0.585 2.18,-1.419 1.016,-1.401 -0.025,-1.385 0.02,-0.629 0,0" /></g><g
           transform="translate(258.7119,299.2466)"
           id="g4357"><path
             id="path4359"
             style="fill:#ffffff;fill-opacity:1;fill-rule:nonzero;stroke:none"
             d="m 0,0 c 0,-19.865 -16.104,-35.97 -35.969,-35.97 -19.866,0 -35.97,16.105 -35.97,35.97 0,19.866 16.104,35.97 35.97,35.97 C -16.104,35.97 0,19.866 0,0" /></g><g
           style="stroke-width:0.144;stroke-miterlimit:4;stroke-dasharray:none;stroke:#ff0000"
           transform="translate(258.7119,299.2466)"
           id="g4361"><path
             id="path4363"
             style="fill:none;stroke:#ff0000;stroke-width:0.144;stroke-linecap:butt;stroke-linejoin:miter;stroke-miterlimit:4;stroke-dasharray:none;stroke-opacity:1"
             d="m 0,0 c 0,-19.865 -16.104,-35.97 -35.969,-35.97 -19.866,0 -35.97,16.105 -35.97,35.97 0,19.866 16.104,35.97 35.97,35.97 C -16.104,35.97 0,19.866 0,0 Z" /></g><g
           transform="translate(215.5918,297.0347)"
           id="g4365"><path
             id="path4367"
             style="fill:#231f20;fill-opacity:1;fill-rule:evenodd;stroke:none"
             d="m 0,0 c -3.25,1.388 -4.535,3.981 -4.753,7.186 -0.298,4.383 1.946,7.19 5.822,8.837 -1.997,5.48 -1.742,7.83 1.038,9.96 2.745,2.102 6.863,2.297 9.539,0.452 3.021,-2.084 3.42,-4.584 1.627,-10.435 3.744,-1.511 5.813,-4.285 5.819,-8.371 0.005,-3.408 -1.479,-6.028 -4.688,-7.654 0.843,-0.512 1.632,-0.981 2.412,-1.465 5.789,-3.6 8.683,-8.863 8.913,-15.623 0.069,-2.022 0.01,-4.048 0.01,-6.162 l -36.939,0 C -12.257,-13.95 -10.404,-5.023 0,0" /></g><g
           transform="translate(258.1914,167.8008)"
           id="g4369"><path
             id="path4371"
             style="fill:#ffffff;fill-opacity:1;fill-rule:nonzero;stroke:none"
             d="m 0,0 c 0,-19.865 -16.104,-35.971 -35.969,-35.971 -19.866,0 -35.97,16.106 -35.97,35.971 0,19.865 16.104,35.969 35.97,35.969 C -16.104,35.969 0,19.865 0,0" /></g><g
           style="stroke-width:0.144;stroke-miterlimit:4;stroke-dasharray:none;stroke:#ff0000"
           transform="translate(258.1914,167.8008)"
           id="g4373"><path
             id="path4375"
             style="fill:none;stroke:#ff0000;stroke-width:0.144;stroke-linecap:butt;stroke-linejoin:miter;stroke-miterlimit:4;stroke-dasharray:none;stroke-opacity:1"
             d="m 0,0 c 0,-19.865 -16.104,-35.971 -35.969,-35.971 -19.866,0 -35.97,16.106 -35.97,35.971 0,19.865 16.104,35.969 35.97,35.969 C -16.104,35.969 0,19.865 0,0 Z" /></g><g
           transform="translate(237.7485,145.7695)"
           id="g4377"><path
             id="path4379"
             style="fill:#231f20;fill-opacity:1;fill-rule:evenodd;stroke:none"
             d="m 0,0 c -0.081,1.187 -0.116,2.241 -0.229,3.287 -0.554,5.171 -2.76,9.375 -7.228,12.24 -0.998,0.64 -2.052,1.206 -2.989,1.927 -3.177,2.441 -2.239,3.565 0.113,4.869 0.186,0.102 0.359,0.227 0.533,0.346 1.232,0.844 2.183,1.894 2.386,3.441 0.368,2.785 -0.44,5.111 -2.761,6.806 -0.751,0.55 -1.517,1.084 -2.304,1.58 -0.897,0.566 -1.153,1.344 -0.78,2.291 0.323,0.82 0.734,1.609 1.128,2.399 0.808,1.619 0.53,3.34 -0.727,4.398 -1.437,1.208 -3.667,1.351 -5.085,0.325 -1.445,-1.046 -1.85,-2.617 -1.099,-4.385 0.297,-0.7 0.682,-1.364 0.974,-2.067 0.654,-1.569 0.363,-2.376 -1.048,-3.344 -0.974,-0.669 -2.009,-1.302 -2.82,-2.142 -2.749,-2.85 -2.316,-7.09 0.875,-9.414 0.343,-0.249 0.705,-0.472 1.043,-0.728 1.624,-1.226 1.732,-2.233 0.189,-3.597 -1.038,-0.919 -2.241,-1.661 -3.403,-2.431 C -28.876,12.063 -31.269,6.743 -30.961,0 L 0,0 Z m 2.984,-3.486 -37.015,0 c -0.284,4.651 -0.228,9.215 1.547,13.61 1.836,4.549 5.345,7.418 9.736,9.619 -3.616,1.792 -4.806,4.835 -4.681,8.482 0.13,3.827 2.429,6.165 5.729,7.644 -1.864,5.599 -1.469,8.191 1.513,10.234 2.895,1.984 7.133,1.918 9.64,-0.147 2.848,-2.349 3.161,-5.105 1.064,-10.054 3.351,-1.452 5.664,-3.805 5.865,-7.666 C -3.42,24.479 -4.799,21.535 -8.45,19.799 -3.825,17.313 0.021,14.232 1.783,9.191 3.221,5.076 3.231,0.831 2.984,-3.486" /></g><g
           transform="translate(333.5103,299.2476)"
           id="g4381"><path
             id="path4383"
             style="fill:#ffffff;fill-opacity:1;fill-rule:nonzero;stroke:none"
             d="m 0,0 c 0,-19.865 -16.104,-35.971 -35.969,-35.971 -19.866,0 -35.97,16.106 -35.97,35.971 0,19.865 16.104,35.969 35.97,35.969 C -16.104,35.969 0,19.865 0,0" /></g><g
           style="stroke-width:0.144;stroke-miterlimit:4;stroke-dasharray:none;stroke:#ff0000"
           transform="translate(333.5103,299.2476)"
           id="g4385"><path
             id="path4387"
             style="fill:none;stroke:#ff0000;stroke-width:0.144;stroke-linecap:butt;stroke-linejoin:miter;stroke-miterlimit:4;stroke-dasharray:none;stroke-opacity:1"
             d="m 0,0 c 0,-19.865 -16.104,-35.971 -35.969,-35.971 -19.866,0 -35.97,16.106 -35.97,35.971 0,19.865 16.104,35.969 35.97,35.969 C -16.104,35.969 0,19.865 0,0 Z" /></g><g
           transform="translate(290.3901,297.0347)"
           id="g4389"><path
             id="path4391"
             style="fill:#231f20;fill-opacity:1;fill-rule:evenodd;stroke:none"
             d="m 0,0 c -3.25,1.389 -4.535,3.982 -4.753,7.187 -0.298,4.383 1.946,7.19 5.822,8.836 -1.997,5.481 -1.742,7.83 1.038,9.96 2.745,2.102 6.863,2.298 9.539,0.452 3.021,-2.083 3.42,-4.584 1.627,-10.435 3.744,-1.511 5.813,-4.284 5.819,-8.37 0.005,-3.409 -1.479,-6.028 -4.688,-7.655 0.843,-0.512 1.632,-0.981 2.412,-1.465 5.789,-3.6 8.683,-8.862 8.913,-15.623 0.069,-2.022 0.01,-4.047 0.01,-6.162 l -36.939,0 C -12.257,-13.949 -10.404,-5.022 0,0" /></g><g
           transform="translate(408.6099,299.2476)"
           id="g4393"><path
             id="path4395"
             style="fill:#ffffff;fill-opacity:1;fill-rule:nonzero;stroke:none"
             d="m 0,0 c 0,-19.865 -16.104,-35.971 -35.969,-35.971 -19.866,0 -35.97,16.106 -35.97,35.971 0,19.865 16.104,35.969 35.97,35.969 C -16.104,35.969 0,19.865 0,0" /></g><g
           style="stroke-width:0.144;stroke-miterlimit:4;stroke-dasharray:none;stroke:#ff0000"
           transform="translate(408.6099,299.2476)"
           id="g4397"><path
             id="path4399"
             style="fill:none;stroke:#ff0000;stroke-width:0.144;stroke-linecap:butt;stroke-linejoin:miter;stroke-miterlimit:4;stroke-dasharray:none;stroke-opacity:1"
             d="m 0,0 c 0,-19.865 -16.104,-35.971 -35.969,-35.971 -19.866,0 -35.97,16.106 -35.97,35.971 0,19.865 16.104,35.969 35.97,35.969 C -16.104,35.969 0,19.865 0,0 Z" /></g><g
           transform="translate(365.4897,297.0347)"
           id="g4401"><path
             id="path4403"
             style="fill:#231f20;fill-opacity:1;fill-rule:evenodd;stroke:none"
             d="m 0,0 c -3.25,1.389 -4.535,3.982 -4.753,7.187 -0.298,4.383 1.946,7.19 5.822,8.836 -1.997,5.481 -1.742,7.83 1.038,9.96 2.745,2.102 6.863,2.298 9.539,0.452 3.021,-2.083 3.42,-4.584 1.627,-10.435 3.744,-1.511 5.813,-4.284 5.819,-8.37 0.005,-3.409 -1.479,-6.028 -4.688,-7.655 0.843,-0.512 1.632,-0.981 2.412,-1.465 5.789,-3.6 8.683,-8.862 8.913,-15.623 0.069,-2.022 0.01,-4.047 0.01,-6.162 l -36.939,0 C -12.257,-13.949 -10.404,-5.022 0,0" /></g><g
           transform="translate(334.5537,37.0371)"
           id="g4405"><path
             id="path4407"
             style="fill:#ffffff;fill-opacity:1;fill-rule:nonzero;stroke:none"
             d="m 0,0 c 0,-19.865 -16.104,-35.971 -35.969,-35.971 -19.865,0 -35.969,16.106 -35.969,35.971 0,19.865 16.104,35.969 35.969,35.969 C -16.104,35.969 0,19.865 0,0" /></g><g
           style="stroke-width:0.144;stroke-miterlimit:4;stroke-dasharray:none;stroke:#ff0000"
           transform="translate(334.5537,37.0371)"
           id="g4409"><path
             id="path4411"
             style="fill:none;stroke:#ff0000;stroke-width:0.144;stroke-linecap:butt;stroke-linejoin:miter;stroke-miterlimit:4;stroke-dasharray:none;stroke-opacity:1"
             d="m 0,0 c 0,-19.865 -16.104,-35.971 -35.969,-35.971 -19.865,0 -35.969,16.106 -35.969,35.971 0,19.865 16.104,35.969 35.969,35.969 C -16.104,35.969 0,19.865 0,0 Z" /></g><g
           transform="translate(291.4341,34.8242)"
           id="g4413"><path
             id="path4415"
             style="fill:#231f20;fill-opacity:1;fill-rule:evenodd;stroke:none"
             d="m 0,0 c -3.25,1.389 -4.535,3.982 -4.753,7.186 -0.298,4.384 1.946,7.191 5.822,8.837 -1.997,5.481 -1.742,7.83 1.038,9.959 2.745,2.103 6.863,2.298 9.539,0.453 3.021,-2.083 3.42,-4.584 1.627,-10.435 3.744,-1.512 5.813,-4.285 5.819,-8.371 0.005,-3.408 -1.479,-6.027 -4.688,-7.654 0.843,-0.512 1.632,-0.981 2.412,-1.465 5.789,-3.6 8.683,-8.862 8.913,-15.623 0.069,-2.022 0.01,-4.047 0.01,-6.162 l -36.939,0 C -12.257,-13.949 -10.404,-5.023 0,0" /></g><g
           transform="translate(73.9243,233.6016)"
           id="g4417"><path
             id="path4419"
             style="fill:#ffffff;fill-opacity:1;fill-rule:nonzero;stroke:none"
             d="m 0,0 c 0,-19.865 -16.104,-35.971 -35.969,-35.971 -19.866,0 -35.97,16.106 -35.97,35.971 0,19.865 16.104,35.969 35.97,35.969 C -16.104,35.969 0,19.865 0,0" /></g><g
           style="stroke-width:0.144;stroke-miterlimit:4;stroke-dasharray:none;stroke:#ff0000"
           transform="translate(73.9243,233.6016)"
           id="g4421"><path
             id="path4423"
             style="fill:none;stroke:#ff0000;stroke-width:0.144;stroke-linecap:butt;stroke-linejoin:miter;stroke-miterlimit:4;stroke-dasharray:none;stroke-opacity:1"
             d="m 0,0 c 0,-19.865 -16.104,-35.971 -35.969,-35.971 -19.866,0 -35.97,16.106 -35.97,35.971 0,19.865 16.104,35.969 35.97,35.969 C -16.104,35.969 0,19.865 0,0 Z" /></g><g
           transform="translate(30.8042,231.3887)"
           id="g4425"><path
             id="path4427"
             style="fill:#231f20;fill-opacity:1;fill-rule:evenodd;stroke:none"
             d="m 0,0 c -3.25,1.389 -4.535,3.982 -4.753,7.187 -0.298,4.383 1.946,7.19 5.822,8.836 -1.997,5.481 -1.742,7.83 1.038,9.96 2.745,2.102 6.863,2.298 9.539,0.452 3.021,-2.083 3.42,-4.584 1.627,-10.435 3.744,-1.511 5.813,-4.284 5.819,-8.37 0.005,-3.409 -1.479,-6.028 -4.688,-7.655 0.843,-0.512 1.632,-0.981 2.412,-1.465 5.789,-3.6 8.683,-8.862 8.913,-15.623 0.069,-2.022 0.01,-4.047 0.01,-6.162 l -36.939,0 C -12.257,-13.949 -10.404,-5.022 0,0" /></g><g
           transform="translate(148.1997,233.6016)"
           id="g4429"><path
             id="path4431"
             style="fill:#ffffff;fill-opacity:1;fill-rule:nonzero;stroke:none"
             d="m 0,0 c 0,-19.865 -16.104,-35.971 -35.97,-35.971 -19.866,0 -35.969,16.106 -35.969,35.971 0,19.865 16.103,35.969 35.969,35.969 C -16.104,35.969 0,19.865 0,0" /></g><g
           style="stroke-width:0.144;stroke-miterlimit:4;stroke-dasharray:none;stroke:#ff0000"
           transform="translate(148.1997,233.6016)"
           id="g4433"><path
             id="path4435"
             style="fill:none;stroke:#ff0000;stroke-width:0.144;stroke-linecap:butt;stroke-linejoin:miter;stroke-miterlimit:4;stroke-dasharray:none;stroke-opacity:1"
             d="m 0,0 c 0,-19.865 -16.104,-35.971 -35.97,-35.971 -19.866,0 -35.969,16.106 -35.969,35.971 0,19.865 16.103,35.969 35.969,35.969 C -16.104,35.969 0,19.865 0,0 Z" /></g><g
           transform="translate(105.0786,231.3887)"
           id="g4437"><path
             id="path4439"
             style="fill:#231f20;fill-opacity:1;fill-rule:evenodd;stroke:none"
             d="m 0,0 c -3.25,1.389 -4.534,3.982 -4.753,7.187 -0.298,4.383 1.946,7.19 5.822,8.836 -1.997,5.481 -1.742,7.83 1.038,9.96 2.745,2.102 6.864,2.298 9.539,0.452 3.022,-2.083 3.42,-4.584 1.627,-10.435 3.745,-1.511 5.814,-4.284 5.819,-8.37 0.006,-3.409 -1.479,-6.028 -4.688,-7.655 0.844,-0.512 1.633,-0.981 2.412,-1.465 5.789,-3.6 8.683,-8.862 8.913,-15.623 0.07,-2.022 0.011,-4.047 0.011,-6.162 l -36.939,0 C -12.257,-13.949 -10.404,-5.022 0,0" /></g><g
           transform="translate(222.1909,233.6016)"
           id="g4441"><path
             id="path4443"
             style="fill:#ffffff;fill-opacity:1;fill-rule:nonzero;stroke:none"
             d="m 0,0 c 0,-19.865 -16.104,-35.971 -35.969,-35.971 -19.865,0 -35.969,16.106 -35.969,35.971 0,19.865 16.104,35.969 35.969,35.969 C -16.104,35.969 0,19.865 0,0" /></g><g
           style="stroke-width:0.144;stroke-miterlimit:4;stroke-dasharray:none;stroke:#ff0000"
           transform="translate(222.1909,233.6016)"
           id="g4445"><path
             id="path4447"
             style="fill:none;stroke:#ff0000;stroke-width:0.144;stroke-linecap:butt;stroke-linejoin:miter;stroke-miterlimit:4;stroke-dasharray:none;stroke-opacity:1"
             d="m 0,0 c 0,-19.865 -16.104,-35.971 -35.969,-35.971 -19.865,0 -35.969,16.106 -35.969,35.971 0,19.865 16.104,35.969 35.969,35.969 C -16.104,35.969 0,19.865 0,0 Z" /></g><g
           transform="translate(179.0718,231.3887)"
           id="g4449"><path
             id="path4451"
             style="fill:#231f20;fill-opacity:1;fill-rule:evenodd;stroke:none"
             d="m 0,0 c -3.251,1.389 -4.535,3.982 -4.754,7.187 -0.298,4.383 1.946,7.19 5.822,8.836 -1.996,5.481 -1.742,7.83 1.039,9.96 2.745,2.102 6.862,2.298 9.539,0.452 3.02,-2.083 3.42,-4.584 1.627,-10.435 3.743,-1.511 5.813,-4.284 5.819,-8.37 0.005,-3.409 -1.48,-6.028 -4.688,-7.655 0.842,-0.512 1.631,-0.981 2.412,-1.465 5.789,-3.6 8.682,-8.862 8.913,-15.623 0.068,-2.022 0.009,-4.047 0.009,-6.162 l -36.939,0 C -12.258,-13.949 -10.404,-5.022 0,0" /></g><g
           transform="translate(332.5415,167.8008)"
           id="g4453"><path
             id="path4455"
             style="fill:#ffffff;fill-opacity:1;fill-rule:nonzero;stroke:none"
             d="m 0,0 c 0,-19.865 -16.104,-35.971 -35.969,-35.971 -19.866,0 -35.97,16.106 -35.97,35.971 0,19.865 16.104,35.969 35.97,35.969 C -16.104,35.969 0,19.865 0,0" /></g><g
           style="stroke-width:0.144;stroke-miterlimit:4;stroke-dasharray:none;stroke:#ff0000"
           transform="translate(332.5415,167.8008)"
           id="g4457"><path
             id="path4459"
             style="fill:none;stroke:#ff0000;stroke-width:0.144;stroke-linecap:butt;stroke-linejoin:miter;stroke-miterlimit:4;stroke-dasharray:none;stroke-opacity:1"
             d="m 0,0 c 0,-19.865 -16.104,-35.971 -35.969,-35.971 -19.866,0 -35.97,16.106 -35.97,35.971 0,19.865 16.104,35.969 35.97,35.969 C -16.104,35.969 0,19.865 0,0 Z" /></g><g
           transform="translate(312.0986,145.7695)"
           id="g4461"><path
             id="path4463"
             style="fill:#231f20;fill-opacity:1;fill-rule:evenodd;stroke:none"
             d="m 0,0 c -0.081,1.187 -0.116,2.241 -0.229,3.287 -0.554,5.171 -2.76,9.375 -7.228,12.24 -0.998,0.64 -2.052,1.206 -2.989,1.927 -3.177,2.441 -2.239,3.565 0.113,4.869 0.186,0.102 0.359,0.227 0.533,0.346 1.232,0.844 2.183,1.894 2.386,3.441 0.368,2.785 -0.44,5.111 -2.761,6.806 -0.751,0.55 -1.517,1.084 -2.304,1.58 -0.897,0.566 -1.153,1.344 -0.78,2.291 0.323,0.82 0.734,1.609 1.128,2.399 0.808,1.619 0.53,3.34 -0.727,4.398 -1.437,1.208 -3.667,1.351 -5.085,0.325 -1.445,-1.046 -1.85,-2.617 -1.099,-4.385 0.297,-0.7 0.682,-1.364 0.974,-2.067 0.654,-1.569 0.363,-2.376 -1.048,-3.344 -0.974,-0.669 -2.009,-1.302 -2.82,-2.142 -2.749,-2.85 -2.316,-7.09 0.875,-9.414 0.343,-0.249 0.705,-0.472 1.043,-0.728 1.624,-1.226 1.732,-2.233 0.189,-3.597 -1.038,-0.919 -2.241,-1.661 -3.403,-2.431 C -28.876,12.063 -31.269,6.743 -30.961,0 L 0,0 Z m 2.984,-3.486 -37.015,0 c -0.284,4.651 -0.228,9.215 1.547,13.61 1.836,4.549 5.345,7.418 9.736,9.619 -3.616,1.792 -4.806,4.835 -4.681,8.482 0.13,3.827 2.429,6.165 5.729,7.644 -1.864,5.599 -1.469,8.191 1.513,10.234 2.895,1.984 7.133,1.918 9.64,-0.147 2.848,-2.349 3.161,-5.105 1.064,-10.054 3.351,-1.452 5.664,-3.805 5.865,-7.666 C -3.42,24.479 -4.799,21.535 -8.45,19.799 -3.825,17.313 0.021,14.232 1.783,9.191 3.221,5.076 3.231,0.831 2.984,-3.486" /></g><g
           transform="translate(407.0713,167.8008)"
           id="g4465"><path
             id="path4467"
             style="fill:#ffffff;fill-opacity:1;fill-rule:nonzero;stroke:none"
             d="m 0,0 c 0,-19.865 -16.104,-35.971 -35.969,-35.971 -19.866,0 -35.97,16.106 -35.97,35.971 0,19.865 16.104,35.969 35.97,35.969 C -16.104,35.969 0,19.865 0,0" /></g><g
           style="stroke-width:0.144;stroke-miterlimit:4;stroke-dasharray:none;stroke:#ff0000"
           transform="translate(407.0713,167.8008)"
           id="g4469"><path
             id="path4471"
             style="fill:none;stroke:#ff0000;stroke-width:0.144;stroke-linecap:butt;stroke-linejoin:miter;stroke-miterlimit:4;stroke-dasharray:none;stroke-opacity:1"
             d="m 0,0 c 0,-19.865 -16.104,-35.971 -35.969,-35.971 -19.866,0 -35.97,16.106 -35.97,35.971 0,19.865 16.104,35.969 35.97,35.969 C -16.104,35.969 0,19.865 0,0 Z" /></g><g
           transform="translate(386.6284,145.7695)"
           id="g4473"><path
             id="path4475"
             style="fill:#231f20;fill-opacity:1;fill-rule:evenodd;stroke:none"
             d="m 0,0 c -0.081,1.187 -0.116,2.241 -0.229,3.287 -0.554,5.171 -2.76,9.375 -7.228,12.24 -0.998,0.64 -2.052,1.206 -2.989,1.927 -3.177,2.441 -2.239,3.565 0.113,4.869 0.186,0.102 0.359,0.227 0.533,0.346 1.232,0.844 2.183,1.894 2.386,3.441 0.368,2.785 -0.44,5.111 -2.761,6.806 -0.751,0.55 -1.517,1.084 -2.304,1.58 -0.897,0.566 -1.153,1.344 -0.78,2.291 0.323,0.82 0.734,1.609 1.128,2.399 0.808,1.619 0.53,3.34 -0.727,4.398 -1.437,1.208 -3.667,1.351 -5.085,0.325 -1.445,-1.046 -1.85,-2.617 -1.099,-4.385 0.297,-0.7 0.682,-1.364 0.974,-2.067 0.654,-1.569 0.363,-2.376 -1.048,-3.344 -0.974,-0.669 -2.009,-1.302 -2.82,-2.142 -2.749,-2.85 -2.316,-7.09 0.875,-9.414 0.343,-0.249 0.705,-0.472 1.043,-0.728 1.624,-1.226 1.732,-2.233 0.189,-3.597 -1.038,-0.919 -2.241,-1.661 -3.403,-2.431 C -28.876,12.063 -31.269,6.743 -30.961,0 L 0,0 Z m 2.984,-3.486 -37.015,0 c -0.284,4.651 -0.228,9.215 1.547,13.61 1.836,4.549 5.345,7.418 9.736,9.619 -3.616,1.792 -4.806,4.835 -4.681,8.482 0.13,3.827 2.429,6.165 5.729,7.644 -1.864,5.599 -1.469,8.191 1.513,10.234 2.895,1.984 7.133,1.918 9.64,-0.147 2.848,-2.349 3.161,-5.105 1.064,-10.054 3.351,-1.452 5.664,-3.805 5.865,-7.666 C -3.42,24.479 -4.799,21.535 -8.45,19.799 -3.825,17.313 0.021,14.232 1.783,9.191 3.221,5.076 3.231,0.831 2.984,-3.486" /></g><g
           transform="translate(258.5713,36.4707)"
           id="g4477"><path
             id="path4479"
             style="fill:#ffffff;fill-opacity:1;fill-rule:nonzero;stroke:none"
             d="m 0,0 c 0,-19.865 -16.104,-35.971 -35.969,-35.971 -19.866,0 -35.97,16.106 -35.97,35.971 0,19.865 16.104,35.969 35.97,35.969 C -16.104,35.969 0,19.865 0,0" /></g><g
           style="stroke-width:0.144;stroke-miterlimit:4;stroke-dasharray:none;stroke:#ff0000"
           transform="translate(258.5713,36.4707)"
           id="g4481"><path
             id="path4483"
             style="fill:none;stroke:#ff0000;stroke-width:0.144;stroke-linecap:butt;stroke-linejoin:miter;stroke-miterlimit:4;stroke-dasharray:none;stroke-opacity:1"
             d="m 0,0 c 0,-19.865 -16.104,-35.971 -35.969,-35.971 -19.866,0 -35.97,16.106 -35.97,35.971 0,19.865 16.104,35.969 35.97,35.969 C -16.104,35.969 0,19.865 0,0 Z" /></g><g
           transform="translate(238.1284,14.4395)"
           id="g4485"><path
             id="path4487"
             style="fill:#231f20;fill-opacity:1;fill-rule:evenodd;stroke:none"
             d="m 0,0 c -0.081,1.186 -0.116,2.24 -0.229,3.287 -0.554,5.17 -2.76,9.375 -7.228,12.24 -0.998,0.639 -2.052,1.205 -2.989,1.926 -3.177,2.442 -2.239,3.565 0.113,4.869 0.186,0.102 0.359,0.227 0.533,0.346 1.232,0.844 2.183,1.894 2.386,3.441 0.368,2.786 -0.44,5.112 -2.761,6.807 -0.751,0.549 -1.517,1.084 -2.304,1.58 -0.897,0.565 -1.153,1.344 -0.78,2.291 0.323,0.82 0.734,1.608 1.128,2.399 0.808,1.619 0.53,3.339 -0.727,4.398 -1.437,1.207 -3.667,1.35 -5.085,0.324 -1.445,-1.045 -1.85,-2.617 -1.099,-4.385 0.297,-0.699 0.682,-1.363 0.974,-2.066 0.654,-1.57 0.363,-2.377 -1.048,-3.344 -0.974,-0.67 -2.009,-1.302 -2.82,-2.142 -2.749,-2.85 -2.316,-7.09 0.875,-9.414 0.343,-0.25 0.705,-0.473 1.043,-0.729 1.624,-1.226 1.732,-2.232 0.189,-3.596 -1.038,-0.92 -2.241,-1.662 -3.403,-2.431 C -28.876,12.063 -31.269,6.742 -30.961,0 L 0,0 Z m 2.984,-3.486 -37.015,0 c -0.284,4.65 -0.228,9.215 1.547,13.609 1.836,4.549 5.345,7.418 9.736,9.619 -3.616,1.793 -4.806,4.836 -4.681,8.483 0.13,3.826 2.429,6.164 5.729,7.644 -1.864,5.598 -1.469,8.19 1.513,10.233 2.895,1.984 7.133,1.919 9.64,-0.147 2.848,-2.348 3.161,-5.105 1.064,-10.053 3.351,-1.453 5.664,-3.806 5.865,-7.666 C -3.42,24.479 -4.799,21.535 -8.45,19.799 -3.825,17.312 0.021,14.232 1.783,9.191 3.221,5.076 3.231,0.83 2.984,-3.486" /></g><g
           transform="translate(184.1997,167.8008)"
           id="g4489"><path
             id="path4491"
             style="fill:#ffffff;fill-opacity:1;fill-rule:nonzero;stroke:none"
             d="m 0,0 c 0,-19.865 -16.104,-35.971 -35.969,-35.971 -19.866,0 -35.97,16.106 -35.97,35.971 0,19.865 16.104,35.969 35.97,35.969 C -16.104,35.969 0,19.865 0,0" /></g><g
           style="stroke-width:0.144;stroke-miterlimit:4;stroke-dasharray:none;stroke:#ff0000"
           transform="translate(184.1997,167.8008)"
           id="g4493"><path
             id="path4495"
             style="fill:none;stroke:#ff0000;stroke-width:0.144;stroke-linecap:butt;stroke-linejoin:miter;stroke-miterlimit:4;stroke-dasharray:none;stroke-opacity:1"
             d="m 0,0 c 0,-19.865 -16.104,-35.971 -35.969,-35.971 -19.866,0 -35.97,16.106 -35.97,35.971 0,19.865 16.104,35.969 35.97,35.969 C -16.104,35.969 0,19.865 0,0 Z" /></g><g
           transform="translate(163.7568,145.7695)"
           id="g4497"><path
             id="path4499"
             style="fill:#231f20;fill-opacity:1;fill-rule:evenodd;stroke:none"
             d="m 0,0 c -0.081,1.187 -0.116,2.241 -0.229,3.287 -0.554,5.171 -2.76,9.375 -7.228,12.24 -0.998,0.64 -2.052,1.206 -2.989,1.927 -3.177,2.441 -2.239,3.565 0.113,4.869 0.186,0.102 0.359,0.227 0.533,0.346 1.232,0.844 2.183,1.894 2.386,3.441 0.368,2.785 -0.44,5.111 -2.761,6.806 -0.751,0.55 -1.517,1.084 -2.304,1.58 -0.897,0.566 -1.153,1.344 -0.78,2.291 0.323,0.82 0.734,1.609 1.128,2.399 0.808,1.619 0.53,3.34 -0.727,4.398 -1.437,1.208 -3.667,1.351 -5.085,0.325 -1.445,-1.046 -1.85,-2.617 -1.099,-4.385 0.297,-0.7 0.682,-1.364 0.974,-2.067 0.654,-1.569 0.363,-2.376 -1.048,-3.344 -0.974,-0.669 -2.009,-1.302 -2.82,-2.142 -2.749,-2.85 -2.316,-7.09 0.875,-9.414 0.343,-0.249 0.705,-0.472 1.043,-0.728 1.624,-1.226 1.732,-2.233 0.189,-3.597 -1.038,-0.919 -2.241,-1.661 -3.403,-2.431 C -28.876,12.063 -31.269,6.743 -30.961,0 L 0,0 Z m 2.984,-3.486 -37.015,0 c -0.284,4.651 -0.228,9.215 1.547,13.61 1.836,4.549 5.345,7.418 9.736,9.619 -3.616,1.792 -4.806,4.835 -4.681,8.482 0.13,3.827 2.429,6.165 5.729,7.644 -1.864,5.599 -1.469,8.191 1.513,10.234 2.895,1.984 7.133,1.918 9.64,-0.147 2.848,-2.349 3.161,-5.105 1.064,-10.054 3.351,-1.452 5.664,-3.805 5.865,-7.666 C -3.42,24.479 -4.799,21.535 -8.45,19.799 -3.825,17.313 0.021,14.232 1.783,9.191 3.221,5.076 3.231,0.831 2.984,-3.486" /></g><g
           transform="translate(110.3984,167.8008)"
           id="g4501"><path
             id="path4503"
             style="fill:#ffffff;fill-opacity:1;fill-rule:nonzero;stroke:none"
             d="m 0,0 c 0,-19.865 -16.104,-35.971 -35.97,-35.971 -19.866,0 -35.969,16.106 -35.969,35.971 0,19.865 16.103,35.969 35.969,35.969 C -16.104,35.969 0,19.865 0,0" /></g><g
           style="stroke-width:0.144;stroke-miterlimit:4;stroke-dasharray:none;stroke:#ff0000"
           transform="translate(110.3984,167.8008)"
           id="g4505"><path
             id="path4507"
             style="fill:none;stroke:#ff0000;stroke-width:0.144;stroke-linecap:butt;stroke-linejoin:miter;stroke-miterlimit:4;stroke-dasharray:none;stroke-opacity:1"
             d="m 0,0 c 0,-19.865 -16.104,-35.971 -35.97,-35.971 -19.866,0 -35.969,16.106 -35.969,35.971 0,19.865 16.103,35.969 35.969,35.969 C -16.104,35.969 0,19.865 0,0 Z" /></g><g
           transform="translate(89.9551,145.7695)"
           id="g4509"><path
             id="path4511"
             style="fill:#231f20;fill-opacity:1;fill-rule:evenodd;stroke:none"
             d="m 0,0 c -0.08,1.187 -0.115,2.241 -0.229,3.287 -0.554,5.171 -2.76,9.375 -7.228,12.24 -0.998,0.64 -2.053,1.206 -2.989,1.927 -3.177,2.441 -2.24,3.565 0.114,4.869 0.185,0.102 0.357,0.227 0.531,0.346 1.233,0.844 2.184,1.894 2.387,3.441 0.367,2.785 -0.44,5.111 -2.761,6.806 -0.751,0.55 -1.517,1.084 -2.304,1.58 -0.898,0.566 -1.154,1.344 -0.781,2.291 0.324,0.82 0.735,1.609 1.129,2.399 0.809,1.619 0.529,3.34 -0.727,4.398 -1.437,1.208 -3.667,1.351 -5.085,0.325 -1.446,-1.046 -1.85,-2.617 -1.098,-4.385 0.297,-0.7 0.682,-1.364 0.973,-2.067 0.654,-1.569 0.363,-2.376 -1.047,-3.344 -0.975,-0.669 -2.01,-1.302 -2.821,-2.142 -2.749,-2.85 -2.316,-7.09 0.875,-9.414 0.343,-0.249 0.706,-0.472 1.043,-0.728 1.624,-1.226 1.732,-2.233 0.19,-3.597 -1.039,-0.919 -2.242,-1.661 -3.404,-2.431 C -28.877,12.063 -31.269,6.743 -30.961,0 L 0,0 Z m 2.984,-3.486 -37.015,0 c -0.283,4.651 -0.228,9.215 1.547,13.61 1.836,4.549 5.345,7.418 9.736,9.619 -3.616,1.792 -4.807,4.835 -4.682,8.482 0.131,3.827 2.43,6.165 5.73,7.644 -1.864,5.599 -1.47,8.191 1.513,10.234 2.894,1.984 7.133,1.918 9.64,-0.147 2.848,-2.349 3.161,-5.105 1.065,-10.054 3.349,-1.452 5.664,-3.805 5.865,-7.666 C -3.42,24.479 -4.799,21.535 -8.449,19.799 -3.824,17.313 0.021,14.232 1.783,9.191 3.221,5.076 3.23,0.831 2.984,-3.486" /></g><g
           transform="translate(445.5801,231.7402)"
           id="g4513"><path
             id="path4515"
             style="fill:#ffffff;fill-opacity:1;fill-rule:nonzero;stroke:none"
             d="m 0,0 c 0,-19.865 -16.104,-35.971 -35.97,-35.971 -19.866,0 -35.969,16.106 -35.969,35.971 0,19.865 16.103,35.969 35.969,35.969 C -16.104,35.969 0,19.865 0,0" /></g><g
           style="stroke:#ff0000;stroke-width:0.144;stroke-miterlimit:4;stroke-dasharray:none"
           transform="translate(445.5801,231.7402)"
           id="g4517"><path
             id="path4519"
             style="fill:none;stroke:#ff0000;stroke-width:0.144;stroke-linecap:butt;stroke-linejoin:miter;stroke-miterlimit:4;stroke-dasharray:none;stroke-opacity:1"
             d="m 0,0 c 0,-19.865 -16.104,-35.971 -35.97,-35.971 -19.866,0 -35.969,16.106 -35.969,35.971 0,19.865 16.103,35.969 35.969,35.969 C -16.104,35.969 0,19.865 0,0 Z" /></g><g
           transform="translate(425.1367,209.709)"
           id="g4521"><path
             id="path4523"
             style="fill:#231f20;fill-opacity:1;fill-rule:evenodd;stroke:none"
             d="m 0,0 c -0.08,1.187 -0.115,2.241 -0.229,3.287 -0.554,5.171 -2.76,9.375 -7.228,12.24 -0.998,0.64 -2.053,1.206 -2.989,1.927 -3.177,2.441 -2.24,3.565 0.114,4.869 0.185,0.102 0.357,0.227 0.531,0.346 1.233,0.844 2.184,1.894 2.387,3.441 0.367,2.785 -0.44,5.111 -2.761,6.806 -0.751,0.55 -1.517,1.084 -2.304,1.58 -0.898,0.566 -1.154,1.344 -0.781,2.291 0.324,0.82 0.735,1.609 1.129,2.399 0.809,1.619 0.529,3.34 -0.727,4.398 -1.437,1.208 -3.667,1.351 -5.085,0.325 -1.446,-1.046 -1.85,-2.617 -1.098,-4.385 0.297,-0.7 0.682,-1.364 0.973,-2.067 0.654,-1.569 0.363,-2.376 -1.047,-3.344 -0.975,-0.669 -2.01,-1.302 -2.821,-2.142 -2.749,-2.85 -2.316,-7.09 0.875,-9.414 0.343,-0.249 0.706,-0.472 1.043,-0.728 1.624,-1.226 1.732,-2.233 0.19,-3.597 -1.039,-0.919 -2.242,-1.661 -3.404,-2.431 C -28.877,12.063 -31.269,6.743 -30.961,0 L 0,0 Z m 2.984,-3.486 -37.015,0 c -0.283,4.651 -0.228,9.215 1.547,13.61 1.836,4.549 5.345,7.418 9.736,9.619 -3.616,1.792 -4.807,4.835 -4.682,8.482 0.131,3.827 2.43,6.165 5.73,7.644 -1.864,5.599 -1.47,8.191 1.513,10.234 2.894,1.984 7.133,1.918 9.64,-0.147 2.848,-2.349 3.161,-5.105 1.065,-10.054 3.349,-1.452 5.664,-3.805 5.865,-7.666 C -3.42,24.479 -4.799,21.535 -8.449,19.799 -3.824,17.313 0.021,14.232 1.783,9.191 3.221,5.076 3.23,0.831 2.984,-3.486" /></g><g
           transform="translate(371.0713,233.6016)"
           id="g4525"><path
             id="path4527"
             style="fill:#ffffff;fill-opacity:1;fill-rule:nonzero;stroke:none"
             d="m 0,0 c 0,-19.865 -16.104,-35.971 -35.969,-35.971 -19.865,0 -35.969,16.106 -35.969,35.971 0,19.865 16.104,35.969 35.969,35.969 C -16.104,35.969 0,19.865 0,0" /></g><g
           style="stroke-width:0.144;stroke-miterlimit:4;stroke-dasharray:none;stroke:#ff0000"
           transform="translate(371.0713,233.6016)"
           id="g4529"><path
             id="path4531"
             style="fill:none;stroke:#ff0000;stroke-width:0.144;stroke-linecap:butt;stroke-linejoin:miter;stroke-miterlimit:4;stroke-dasharray:none;stroke-opacity:1"
             d="m 0,0 c 0,-19.865 -16.104,-35.971 -35.969,-35.971 -19.865,0 -35.969,16.106 -35.969,35.971 0,19.865 16.104,35.969 35.969,35.969 C -16.104,35.969 0,19.865 0,0 Z" /></g><g
           transform="translate(350.6289,211.5703)"
           id="g4533"><path
             id="path4535"
             style="fill:#231f20;fill-opacity:1;fill-rule:evenodd;stroke:none"
             d="m 0,0 c -0.081,1.187 -0.116,2.241 -0.229,3.287 -0.553,5.171 -2.76,9.375 -7.228,12.24 -0.998,0.64 -2.052,1.206 -2.989,1.927 -3.177,2.441 -2.239,3.565 0.113,4.869 0.186,0.102 0.359,0.227 0.533,0.346 1.232,0.844 2.183,1.894 2.387,3.441 0.367,2.785 -0.441,5.111 -2.762,6.806 -0.752,0.55 -1.517,1.084 -2.304,1.58 -0.897,0.566 -1.153,1.344 -0.78,2.291 0.323,0.82 0.735,1.609 1.128,2.399 0.808,1.619 0.53,3.34 -0.727,4.398 -1.437,1.208 -3.667,1.351 -5.084,0.325 -1.446,-1.046 -1.851,-2.617 -1.1,-4.385 0.297,-0.7 0.682,-1.364 0.975,-2.067 0.653,-1.569 0.363,-2.376 -1.049,-3.344 -0.974,-0.669 -2.01,-1.302 -2.821,-2.142 -2.748,-2.85 -2.316,-7.09 0.876,-9.414 0.343,-0.249 0.705,-0.472 1.043,-0.728 1.624,-1.226 1.732,-2.233 0.189,-3.597 -1.038,-0.919 -2.24,-1.661 -3.403,-2.431 C -28.876,12.063 -31.269,6.743 -30.962,0 L 0,0 Z m 2.984,-3.486 -37.015,0 c -0.284,4.651 -0.228,9.215 1.548,13.61 1.835,4.549 5.344,7.418 9.735,9.619 -3.616,1.792 -4.806,4.835 -4.681,8.482 0.13,3.827 2.429,6.165 5.729,7.644 -1.864,5.599 -1.469,8.191 1.513,10.234 2.895,1.984 7.133,1.918 9.639,-0.147 2.849,-2.349 3.162,-5.105 1.065,-10.054 3.351,-1.452 5.664,-3.805 5.865,-7.666 C -3.421,24.479 -4.799,21.535 -8.45,19.799 -3.825,17.313 0.021,14.232 1.782,9.191 3.222,5.076 3.231,0.831 2.984,-3.486" /></g><g
           transform="translate(296.541,233.6016)"
           id="g4537"><path
             id="path4539"
             style="fill:#ffffff;fill-opacity:1;fill-rule:nonzero;stroke:none"
             d="m 0,0 c 0,-19.865 -16.104,-35.971 -35.969,-35.971 -19.865,0 -35.969,16.106 -35.969,35.971 0,19.865 16.104,35.969 35.969,35.969 C -16.104,35.969 0,19.865 0,0" /></g><g
           style="stroke-width:0.144;stroke-miterlimit:4;stroke-dasharray:none;stroke:#ff0000"
           transform="translate(296.541,233.6016)"
           id="g4541"><path
             id="path4543"
             style="fill:none;stroke:#ff0000;stroke-width:0.144;stroke-linecap:butt;stroke-linejoin:miter;stroke-miterlimit:4;stroke-dasharray:none;stroke-opacity:1"
             d="m 0,0 c 0,-19.865 -16.104,-35.971 -35.969,-35.971 -19.865,0 -35.969,16.106 -35.969,35.971 0,19.865 16.104,35.969 35.969,35.969 C -16.104,35.969 0,19.865 0,0 Z" /></g><g
           transform="translate(253.4219,231.3887)"
           id="g4545"><path
             id="path4547"
             style="fill:#231f20;fill-opacity:1;fill-rule:evenodd;stroke:none"
             d="m 0,0 c -3.251,1.389 -4.535,3.982 -4.754,7.187 -0.298,4.383 1.946,7.19 5.822,8.836 -1.996,5.481 -1.742,7.83 1.039,9.96 2.745,2.102 6.862,2.298 9.539,0.452 3.02,-2.083 3.42,-4.584 1.627,-10.435 3.743,-1.511 5.813,-4.284 5.819,-8.37 0.005,-3.409 -1.48,-6.028 -4.688,-7.655 0.842,-0.512 1.631,-0.981 2.412,-1.465 5.789,-3.6 8.682,-8.862 8.913,-15.623 0.068,-2.022 0.009,-4.047 0.009,-6.162 l -36.939,0 C -12.258,-13.949 -10.404,-5.022 0,0" /></g></g></g></g></svg>